%TF.GenerationSoftware,KiCad,Pcbnew,9.0.6-9.0.6~ubuntu24.04.1*%
%TF.CreationDate,2025-11-09T14:17:22-06:00*%
%TF.ProjectId,FlockOff,466c6f63-6b4f-4666-962e-6b696361645f,rev?*%
%TF.SameCoordinates,Original*%
%TF.FileFunction,Legend,Top*%
%TF.FilePolarity,Positive*%
%FSLAX46Y46*%
G04 Gerber Fmt 4.6, Leading zero omitted, Abs format (unit mm)*
G04 Created by KiCad (PCBNEW 9.0.6-9.0.6~ubuntu24.04.1) date 2025-11-09 14:17:22*
%MOMM*%
%LPD*%
G01*
G04 APERTURE LIST*
%ADD10C,0.100000*%
%ADD11C,0.200000*%
%ADD12C,0.150000*%
%ADD13C,0.120000*%
G04 APERTURE END LIST*
D10*
X143786027Y-106595808D02*
X143940789Y-107262475D01*
X143940789Y-107262475D02*
X144262217Y-106595808D01*
X145083646Y-107262475D02*
X144512217Y-107262475D01*
X144797932Y-107262475D02*
X144922932Y-106262475D01*
X144922932Y-106262475D02*
X144809836Y-106405332D01*
X144809836Y-106405332D02*
X144702694Y-106500570D01*
X144702694Y-106500570D02*
X144601503Y-106548189D01*
X145524122Y-107167236D02*
X145565789Y-107214856D01*
X145565789Y-107214856D02*
X145512217Y-107262475D01*
X145512217Y-107262475D02*
X145470551Y-107214856D01*
X145470551Y-107214856D02*
X145524122Y-107167236D01*
X145524122Y-107167236D02*
X145512217Y-107262475D01*
X146303884Y-106262475D02*
X146399122Y-106262475D01*
X146399122Y-106262475D02*
X146488407Y-106310094D01*
X146488407Y-106310094D02*
X146530074Y-106357713D01*
X146530074Y-106357713D02*
X146565788Y-106452951D01*
X146565788Y-106452951D02*
X146589598Y-106643427D01*
X146589598Y-106643427D02*
X146559836Y-106881522D01*
X146559836Y-106881522D02*
X146488407Y-107071998D01*
X146488407Y-107071998D02*
X146428884Y-107167236D01*
X146428884Y-107167236D02*
X146375312Y-107214856D01*
X146375312Y-107214856D02*
X146274122Y-107262475D01*
X146274122Y-107262475D02*
X146178884Y-107262475D01*
X146178884Y-107262475D02*
X146089598Y-107214856D01*
X146089598Y-107214856D02*
X146047931Y-107167236D01*
X146047931Y-107167236D02*
X146012217Y-107071998D01*
X146012217Y-107071998D02*
X145988407Y-106881522D01*
X145988407Y-106881522D02*
X146018169Y-106643427D01*
X146018169Y-106643427D02*
X146089598Y-106452951D01*
X146089598Y-106452951D02*
X146149122Y-106357713D01*
X146149122Y-106357713D02*
X146202693Y-106310094D01*
X146202693Y-106310094D02*
X146303884Y-106262475D01*
X146994360Y-107214856D02*
X146988407Y-107262475D01*
X146988407Y-107262475D02*
X146928884Y-107357713D01*
X146928884Y-107357713D02*
X146875312Y-107405332D01*
X148226502Y-107262475D02*
X148416979Y-107262475D01*
X148416979Y-107262475D02*
X148518169Y-107214856D01*
X148518169Y-107214856D02*
X148571741Y-107167236D01*
X148571741Y-107167236D02*
X148684836Y-107024379D01*
X148684836Y-107024379D02*
X148756264Y-106833903D01*
X148756264Y-106833903D02*
X148803883Y-106452951D01*
X148803883Y-106452951D02*
X148768169Y-106357713D01*
X148768169Y-106357713D02*
X148726502Y-106310094D01*
X148726502Y-106310094D02*
X148637217Y-106262475D01*
X148637217Y-106262475D02*
X148446741Y-106262475D01*
X148446741Y-106262475D02*
X148345550Y-106310094D01*
X148345550Y-106310094D02*
X148291979Y-106357713D01*
X148291979Y-106357713D02*
X148232455Y-106452951D01*
X148232455Y-106452951D02*
X148202693Y-106691046D01*
X148202693Y-106691046D02*
X148238407Y-106786284D01*
X148238407Y-106786284D02*
X148280074Y-106833903D01*
X148280074Y-106833903D02*
X148369360Y-106881522D01*
X148369360Y-106881522D02*
X148559836Y-106881522D01*
X148559836Y-106881522D02*
X148661026Y-106833903D01*
X148661026Y-106833903D02*
X148714598Y-106786284D01*
X148714598Y-106786284D02*
X148774121Y-106691046D01*
X150208646Y-106262475D02*
X150399122Y-106262475D01*
X150399122Y-106262475D02*
X150488407Y-106310094D01*
X150488407Y-106310094D02*
X150571741Y-106405332D01*
X150571741Y-106405332D02*
X150595550Y-106595808D01*
X150595550Y-106595808D02*
X150553884Y-106929141D01*
X150553884Y-106929141D02*
X150482455Y-107119617D01*
X150482455Y-107119617D02*
X150375312Y-107214856D01*
X150375312Y-107214856D02*
X150274122Y-107262475D01*
X150274122Y-107262475D02*
X150083646Y-107262475D01*
X150083646Y-107262475D02*
X149994360Y-107214856D01*
X149994360Y-107214856D02*
X149911027Y-107119617D01*
X149911027Y-107119617D02*
X149887217Y-106929141D01*
X149887217Y-106929141D02*
X149928884Y-106595808D01*
X149928884Y-106595808D02*
X150000312Y-106405332D01*
X150000312Y-106405332D02*
X150107455Y-106310094D01*
X150107455Y-106310094D02*
X150208646Y-106262475D01*
X151375312Y-107214856D02*
X151274122Y-107262475D01*
X151274122Y-107262475D02*
X151083646Y-107262475D01*
X151083646Y-107262475D02*
X150994360Y-107214856D01*
X150994360Y-107214856D02*
X150952693Y-107167236D01*
X150952693Y-107167236D02*
X150916979Y-107071998D01*
X150916979Y-107071998D02*
X150952693Y-106786284D01*
X150952693Y-106786284D02*
X151012217Y-106691046D01*
X151012217Y-106691046D02*
X151065788Y-106643427D01*
X151065788Y-106643427D02*
X151166979Y-106595808D01*
X151166979Y-106595808D02*
X151357455Y-106595808D01*
X151357455Y-106595808D02*
X151446741Y-106643427D01*
X151738408Y-106595808D02*
X152119360Y-106595808D01*
X151922931Y-106262475D02*
X151815789Y-107119617D01*
X151815789Y-107119617D02*
X151851503Y-107214856D01*
X151851503Y-107214856D02*
X151940789Y-107262475D01*
X151940789Y-107262475D02*
X152036027Y-107262475D01*
X153196742Y-106357713D02*
X153250313Y-106310094D01*
X153250313Y-106310094D02*
X153351503Y-106262475D01*
X153351503Y-106262475D02*
X153589599Y-106262475D01*
X153589599Y-106262475D02*
X153678884Y-106310094D01*
X153678884Y-106310094D02*
X153720551Y-106357713D01*
X153720551Y-106357713D02*
X153756265Y-106452951D01*
X153756265Y-106452951D02*
X153744361Y-106548189D01*
X153744361Y-106548189D02*
X153678884Y-106691046D01*
X153678884Y-106691046D02*
X153036027Y-107262475D01*
X153036027Y-107262475D02*
X153655075Y-107262475D01*
X154399123Y-106262475D02*
X154494361Y-106262475D01*
X154494361Y-106262475D02*
X154583646Y-106310094D01*
X154583646Y-106310094D02*
X154625313Y-106357713D01*
X154625313Y-106357713D02*
X154661027Y-106452951D01*
X154661027Y-106452951D02*
X154684837Y-106643427D01*
X154684837Y-106643427D02*
X154655075Y-106881522D01*
X154655075Y-106881522D02*
X154583646Y-107071998D01*
X154583646Y-107071998D02*
X154524123Y-107167236D01*
X154524123Y-107167236D02*
X154470551Y-107214856D01*
X154470551Y-107214856D02*
X154369361Y-107262475D01*
X154369361Y-107262475D02*
X154274123Y-107262475D01*
X154274123Y-107262475D02*
X154184837Y-107214856D01*
X154184837Y-107214856D02*
X154143170Y-107167236D01*
X154143170Y-107167236D02*
X154107456Y-107071998D01*
X154107456Y-107071998D02*
X154083646Y-106881522D01*
X154083646Y-106881522D02*
X154113408Y-106643427D01*
X154113408Y-106643427D02*
X154184837Y-106452951D01*
X154184837Y-106452951D02*
X154244361Y-106357713D01*
X154244361Y-106357713D02*
X154297932Y-106310094D01*
X154297932Y-106310094D02*
X154399123Y-106262475D01*
X155101504Y-106357713D02*
X155155075Y-106310094D01*
X155155075Y-106310094D02*
X155256265Y-106262475D01*
X155256265Y-106262475D02*
X155494361Y-106262475D01*
X155494361Y-106262475D02*
X155583646Y-106310094D01*
X155583646Y-106310094D02*
X155625313Y-106357713D01*
X155625313Y-106357713D02*
X155661027Y-106452951D01*
X155661027Y-106452951D02*
X155649123Y-106548189D01*
X155649123Y-106548189D02*
X155583646Y-106691046D01*
X155583646Y-106691046D02*
X154940789Y-107262475D01*
X154940789Y-107262475D02*
X155559837Y-107262475D01*
X156589599Y-106262475D02*
X156113408Y-106262475D01*
X156113408Y-106262475D02*
X156006266Y-106738665D01*
X156006266Y-106738665D02*
X156059837Y-106691046D01*
X156059837Y-106691046D02*
X156161027Y-106643427D01*
X156161027Y-106643427D02*
X156399123Y-106643427D01*
X156399123Y-106643427D02*
X156488408Y-106691046D01*
X156488408Y-106691046D02*
X156530075Y-106738665D01*
X156530075Y-106738665D02*
X156565789Y-106833903D01*
X156565789Y-106833903D02*
X156536027Y-107071998D01*
X156536027Y-107071998D02*
X156476504Y-107167236D01*
X156476504Y-107167236D02*
X156422932Y-107214856D01*
X156422932Y-107214856D02*
X156321742Y-107262475D01*
X156321742Y-107262475D02*
X156083646Y-107262475D01*
X156083646Y-107262475D02*
X155994361Y-107214856D01*
X155994361Y-107214856D02*
X155952694Y-107167236D01*
X143797931Y-108872419D02*
X143922931Y-107872419D01*
X143922931Y-107872419D02*
X144166979Y-108586704D01*
X144166979Y-108586704D02*
X144589598Y-107872419D01*
X144589598Y-107872419D02*
X144464598Y-108872419D01*
X144952693Y-108777180D02*
X144994360Y-108824800D01*
X144994360Y-108824800D02*
X144940788Y-108872419D01*
X144940788Y-108872419D02*
X144899122Y-108824800D01*
X144899122Y-108824800D02*
X144952693Y-108777180D01*
X144952693Y-108777180D02*
X144940788Y-108872419D01*
X145815788Y-108348609D02*
X145952693Y-108396228D01*
X145952693Y-108396228D02*
X145994359Y-108443847D01*
X145994359Y-108443847D02*
X146030074Y-108539085D01*
X146030074Y-108539085D02*
X146012216Y-108681942D01*
X146012216Y-108681942D02*
X145952693Y-108777180D01*
X145952693Y-108777180D02*
X145899121Y-108824800D01*
X145899121Y-108824800D02*
X145797931Y-108872419D01*
X145797931Y-108872419D02*
X145416978Y-108872419D01*
X145416978Y-108872419D02*
X145541978Y-107872419D01*
X145541978Y-107872419D02*
X145875312Y-107872419D01*
X145875312Y-107872419D02*
X145964597Y-107920038D01*
X145964597Y-107920038D02*
X146006264Y-107967657D01*
X146006264Y-107967657D02*
X146041978Y-108062895D01*
X146041978Y-108062895D02*
X146030074Y-108158133D01*
X146030074Y-108158133D02*
X145970550Y-108253371D01*
X145970550Y-108253371D02*
X145916978Y-108300990D01*
X145916978Y-108300990D02*
X145815788Y-108348609D01*
X145815788Y-108348609D02*
X145482455Y-108348609D01*
X146416978Y-108872419D02*
X146500312Y-108205752D01*
X146476502Y-108396228D02*
X146536026Y-108300990D01*
X146536026Y-108300990D02*
X146589597Y-108253371D01*
X146589597Y-108253371D02*
X146690788Y-108205752D01*
X146690788Y-108205752D02*
X146786026Y-108205752D01*
X147547931Y-108205752D02*
X147464598Y-108872419D01*
X147119360Y-108205752D02*
X147053884Y-108729561D01*
X147053884Y-108729561D02*
X147089598Y-108824800D01*
X147089598Y-108824800D02*
X147178884Y-108872419D01*
X147178884Y-108872419D02*
X147321741Y-108872419D01*
X147321741Y-108872419D02*
X147422931Y-108824800D01*
X147422931Y-108824800D02*
X147476503Y-108777180D01*
X148452693Y-108205752D02*
X148351503Y-109015276D01*
X148351503Y-109015276D02*
X148291979Y-109110514D01*
X148291979Y-109110514D02*
X148238407Y-109158133D01*
X148238407Y-109158133D02*
X148137217Y-109205752D01*
X148137217Y-109205752D02*
X147994360Y-109205752D01*
X147994360Y-109205752D02*
X147905074Y-109158133D01*
X148375312Y-108824800D02*
X148274122Y-108872419D01*
X148274122Y-108872419D02*
X148083646Y-108872419D01*
X148083646Y-108872419D02*
X147994360Y-108824800D01*
X147994360Y-108824800D02*
X147952693Y-108777180D01*
X147952693Y-108777180D02*
X147916979Y-108681942D01*
X147916979Y-108681942D02*
X147952693Y-108396228D01*
X147952693Y-108396228D02*
X148012217Y-108300990D01*
X148012217Y-108300990D02*
X148065788Y-108253371D01*
X148065788Y-108253371D02*
X148166979Y-108205752D01*
X148166979Y-108205752D02*
X148357455Y-108205752D01*
X148357455Y-108205752D02*
X148446741Y-108253371D01*
X148845550Y-108872419D02*
X148928884Y-108205752D01*
X148916979Y-108300990D02*
X148970550Y-108253371D01*
X148970550Y-108253371D02*
X149071741Y-108205752D01*
X149071741Y-108205752D02*
X149214598Y-108205752D01*
X149214598Y-108205752D02*
X149303884Y-108253371D01*
X149303884Y-108253371D02*
X149339598Y-108348609D01*
X149339598Y-108348609D02*
X149274122Y-108872419D01*
X149339598Y-108348609D02*
X149399122Y-108253371D01*
X149399122Y-108253371D02*
X149500312Y-108205752D01*
X149500312Y-108205752D02*
X149643169Y-108205752D01*
X149643169Y-108205752D02*
X149732455Y-108253371D01*
X149732455Y-108253371D02*
X149768169Y-108348609D01*
X149768169Y-108348609D02*
X149702693Y-108872419D01*
X150607455Y-108872419D02*
X150672931Y-108348609D01*
X150672931Y-108348609D02*
X150637217Y-108253371D01*
X150637217Y-108253371D02*
X150547931Y-108205752D01*
X150547931Y-108205752D02*
X150357455Y-108205752D01*
X150357455Y-108205752D02*
X150256264Y-108253371D01*
X150613407Y-108824800D02*
X150512217Y-108872419D01*
X150512217Y-108872419D02*
X150274121Y-108872419D01*
X150274121Y-108872419D02*
X150184836Y-108824800D01*
X150184836Y-108824800D02*
X150149121Y-108729561D01*
X150149121Y-108729561D02*
X150161026Y-108634323D01*
X150161026Y-108634323D02*
X150220550Y-108539085D01*
X150220550Y-108539085D02*
X150321741Y-108491466D01*
X150321741Y-108491466D02*
X150559836Y-108491466D01*
X150559836Y-108491466D02*
X150661026Y-108443847D01*
X151166979Y-108205752D02*
X151083645Y-108872419D01*
X151155074Y-108300990D02*
X151208645Y-108253371D01*
X151208645Y-108253371D02*
X151309836Y-108205752D01*
X151309836Y-108205752D02*
X151452693Y-108205752D01*
X151452693Y-108205752D02*
X151541979Y-108253371D01*
X151541979Y-108253371D02*
X151577693Y-108348609D01*
X151577693Y-108348609D02*
X151512217Y-108872419D01*
D11*
X145203006Y-78843409D02*
X144869673Y-78843409D01*
X144869673Y-79367219D02*
X144869673Y-78367219D01*
X144869673Y-78367219D02*
X145345863Y-78367219D01*
X146203006Y-79367219D02*
X145726816Y-79367219D01*
X145726816Y-79367219D02*
X145726816Y-78367219D01*
X146726816Y-78367219D02*
X146917292Y-78367219D01*
X146917292Y-78367219D02*
X147012530Y-78414838D01*
X147012530Y-78414838D02*
X147107768Y-78510076D01*
X147107768Y-78510076D02*
X147155387Y-78700552D01*
X147155387Y-78700552D02*
X147155387Y-79033885D01*
X147155387Y-79033885D02*
X147107768Y-79224361D01*
X147107768Y-79224361D02*
X147012530Y-79319600D01*
X147012530Y-79319600D02*
X146917292Y-79367219D01*
X146917292Y-79367219D02*
X146726816Y-79367219D01*
X146726816Y-79367219D02*
X146631578Y-79319600D01*
X146631578Y-79319600D02*
X146536340Y-79224361D01*
X146536340Y-79224361D02*
X146488721Y-79033885D01*
X146488721Y-79033885D02*
X146488721Y-78700552D01*
X146488721Y-78700552D02*
X146536340Y-78510076D01*
X146536340Y-78510076D02*
X146631578Y-78414838D01*
X146631578Y-78414838D02*
X146726816Y-78367219D01*
X148155387Y-79271980D02*
X148107768Y-79319600D01*
X148107768Y-79319600D02*
X147964911Y-79367219D01*
X147964911Y-79367219D02*
X147869673Y-79367219D01*
X147869673Y-79367219D02*
X147726816Y-79319600D01*
X147726816Y-79319600D02*
X147631578Y-79224361D01*
X147631578Y-79224361D02*
X147583959Y-79129123D01*
X147583959Y-79129123D02*
X147536340Y-78938647D01*
X147536340Y-78938647D02*
X147536340Y-78795790D01*
X147536340Y-78795790D02*
X147583959Y-78605314D01*
X147583959Y-78605314D02*
X147631578Y-78510076D01*
X147631578Y-78510076D02*
X147726816Y-78414838D01*
X147726816Y-78414838D02*
X147869673Y-78367219D01*
X147869673Y-78367219D02*
X147964911Y-78367219D01*
X147964911Y-78367219D02*
X148107768Y-78414838D01*
X148107768Y-78414838D02*
X148155387Y-78462457D01*
X148583959Y-79367219D02*
X148583959Y-78367219D01*
X149155387Y-79367219D02*
X148726816Y-78795790D01*
X149155387Y-78367219D02*
X148583959Y-78938647D01*
X149583959Y-78986266D02*
X150345864Y-78986266D01*
X151012530Y-78367219D02*
X151203006Y-78367219D01*
X151203006Y-78367219D02*
X151298244Y-78414838D01*
X151298244Y-78414838D02*
X151393482Y-78510076D01*
X151393482Y-78510076D02*
X151441101Y-78700552D01*
X151441101Y-78700552D02*
X151441101Y-79033885D01*
X151441101Y-79033885D02*
X151393482Y-79224361D01*
X151393482Y-79224361D02*
X151298244Y-79319600D01*
X151298244Y-79319600D02*
X151203006Y-79367219D01*
X151203006Y-79367219D02*
X151012530Y-79367219D01*
X151012530Y-79367219D02*
X150917292Y-79319600D01*
X150917292Y-79319600D02*
X150822054Y-79224361D01*
X150822054Y-79224361D02*
X150774435Y-79033885D01*
X150774435Y-79033885D02*
X150774435Y-78700552D01*
X150774435Y-78700552D02*
X150822054Y-78510076D01*
X150822054Y-78510076D02*
X150917292Y-78414838D01*
X150917292Y-78414838D02*
X151012530Y-78367219D01*
X152203006Y-78843409D02*
X151869673Y-78843409D01*
X151869673Y-79367219D02*
X151869673Y-78367219D01*
X151869673Y-78367219D02*
X152345863Y-78367219D01*
X153060149Y-78843409D02*
X152726816Y-78843409D01*
X152726816Y-79367219D02*
X152726816Y-78367219D01*
X152726816Y-78367219D02*
X153203006Y-78367219D01*
D10*
X166827693Y-79420038D02*
X166732455Y-79372419D01*
X166732455Y-79372419D02*
X166589598Y-79372419D01*
X166589598Y-79372419D02*
X166446741Y-79420038D01*
X166446741Y-79420038D02*
X166351503Y-79515276D01*
X166351503Y-79515276D02*
X166303884Y-79610514D01*
X166303884Y-79610514D02*
X166256265Y-79800990D01*
X166256265Y-79800990D02*
X166256265Y-79943847D01*
X166256265Y-79943847D02*
X166303884Y-80134323D01*
X166303884Y-80134323D02*
X166351503Y-80229561D01*
X166351503Y-80229561D02*
X166446741Y-80324800D01*
X166446741Y-80324800D02*
X166589598Y-80372419D01*
X166589598Y-80372419D02*
X166684836Y-80372419D01*
X166684836Y-80372419D02*
X166827693Y-80324800D01*
X166827693Y-80324800D02*
X166875312Y-80277180D01*
X166875312Y-80277180D02*
X166875312Y-79943847D01*
X166875312Y-79943847D02*
X166684836Y-79943847D01*
X167303884Y-80372419D02*
X167303884Y-79372419D01*
X167303884Y-79372419D02*
X167684836Y-79372419D01*
X167684836Y-79372419D02*
X167780074Y-79420038D01*
X167780074Y-79420038D02*
X167827693Y-79467657D01*
X167827693Y-79467657D02*
X167875312Y-79562895D01*
X167875312Y-79562895D02*
X167875312Y-79705752D01*
X167875312Y-79705752D02*
X167827693Y-79800990D01*
X167827693Y-79800990D02*
X167780074Y-79848609D01*
X167780074Y-79848609D02*
X167684836Y-79896228D01*
X167684836Y-79896228D02*
X167303884Y-79896228D01*
X168256265Y-80324800D02*
X168399122Y-80372419D01*
X168399122Y-80372419D02*
X168637217Y-80372419D01*
X168637217Y-80372419D02*
X168732455Y-80324800D01*
X168732455Y-80324800D02*
X168780074Y-80277180D01*
X168780074Y-80277180D02*
X168827693Y-80181942D01*
X168827693Y-80181942D02*
X168827693Y-80086704D01*
X168827693Y-80086704D02*
X168780074Y-79991466D01*
X168780074Y-79991466D02*
X168732455Y-79943847D01*
X168732455Y-79943847D02*
X168637217Y-79896228D01*
X168637217Y-79896228D02*
X168446741Y-79848609D01*
X168446741Y-79848609D02*
X168351503Y-79800990D01*
X168351503Y-79800990D02*
X168303884Y-79753371D01*
X168303884Y-79753371D02*
X168256265Y-79658133D01*
X168256265Y-79658133D02*
X168256265Y-79562895D01*
X168256265Y-79562895D02*
X168303884Y-79467657D01*
X168303884Y-79467657D02*
X168351503Y-79420038D01*
X168351503Y-79420038D02*
X168446741Y-79372419D01*
X168446741Y-79372419D02*
X168684836Y-79372419D01*
X168684836Y-79372419D02*
X168827693Y-79420038D01*
X166875312Y-105372419D02*
X166541979Y-104896228D01*
X166303884Y-105372419D02*
X166303884Y-104372419D01*
X166303884Y-104372419D02*
X166684836Y-104372419D01*
X166684836Y-104372419D02*
X166780074Y-104420038D01*
X166780074Y-104420038D02*
X166827693Y-104467657D01*
X166827693Y-104467657D02*
X166875312Y-104562895D01*
X166875312Y-104562895D02*
X166875312Y-104705752D01*
X166875312Y-104705752D02*
X166827693Y-104800990D01*
X166827693Y-104800990D02*
X166780074Y-104848609D01*
X166780074Y-104848609D02*
X166684836Y-104896228D01*
X166684836Y-104896228D02*
X166303884Y-104896228D01*
X167637217Y-104848609D02*
X167303884Y-104848609D01*
X167303884Y-105372419D02*
X167303884Y-104372419D01*
X167303884Y-104372419D02*
X167780074Y-104372419D01*
D12*
X169411905Y-94454819D02*
X169411905Y-93454819D01*
X169411905Y-93454819D02*
X169650000Y-93454819D01*
X169650000Y-93454819D02*
X169792857Y-93502438D01*
X169792857Y-93502438D02*
X169888095Y-93597676D01*
X169888095Y-93597676D02*
X169935714Y-93692914D01*
X169935714Y-93692914D02*
X169983333Y-93883390D01*
X169983333Y-93883390D02*
X169983333Y-94026247D01*
X169983333Y-94026247D02*
X169935714Y-94216723D01*
X169935714Y-94216723D02*
X169888095Y-94311961D01*
X169888095Y-94311961D02*
X169792857Y-94407200D01*
X169792857Y-94407200D02*
X169650000Y-94454819D01*
X169650000Y-94454819D02*
X169411905Y-94454819D01*
X170364286Y-93550057D02*
X170411905Y-93502438D01*
X170411905Y-93502438D02*
X170507143Y-93454819D01*
X170507143Y-93454819D02*
X170745238Y-93454819D01*
X170745238Y-93454819D02*
X170840476Y-93502438D01*
X170840476Y-93502438D02*
X170888095Y-93550057D01*
X170888095Y-93550057D02*
X170935714Y-93645295D01*
X170935714Y-93645295D02*
X170935714Y-93740533D01*
X170935714Y-93740533D02*
X170888095Y-93883390D01*
X170888095Y-93883390D02*
X170316667Y-94454819D01*
X170316667Y-94454819D02*
X170935714Y-94454819D01*
X157454819Y-93761904D02*
X158264342Y-93761904D01*
X158264342Y-93761904D02*
X158359580Y-93714285D01*
X158359580Y-93714285D02*
X158407200Y-93666666D01*
X158407200Y-93666666D02*
X158454819Y-93571428D01*
X158454819Y-93571428D02*
X158454819Y-93380952D01*
X158454819Y-93380952D02*
X158407200Y-93285714D01*
X158407200Y-93285714D02*
X158359580Y-93238095D01*
X158359580Y-93238095D02*
X158264342Y-93190476D01*
X158264342Y-93190476D02*
X157454819Y-93190476D01*
X158454819Y-92190476D02*
X158454819Y-92761904D01*
X158454819Y-92476190D02*
X157454819Y-92476190D01*
X157454819Y-92476190D02*
X157597676Y-92571428D01*
X157597676Y-92571428D02*
X157692914Y-92666666D01*
X157692914Y-92666666D02*
X157740533Y-92761904D01*
X169911905Y-91954819D02*
X169911905Y-90954819D01*
X169911905Y-90954819D02*
X170150000Y-90954819D01*
X170150000Y-90954819D02*
X170292857Y-91002438D01*
X170292857Y-91002438D02*
X170388095Y-91097676D01*
X170388095Y-91097676D02*
X170435714Y-91192914D01*
X170435714Y-91192914D02*
X170483333Y-91383390D01*
X170483333Y-91383390D02*
X170483333Y-91526247D01*
X170483333Y-91526247D02*
X170435714Y-91716723D01*
X170435714Y-91716723D02*
X170388095Y-91811961D01*
X170388095Y-91811961D02*
X170292857Y-91907200D01*
X170292857Y-91907200D02*
X170150000Y-91954819D01*
X170150000Y-91954819D02*
X169911905Y-91954819D01*
X171435714Y-91954819D02*
X170864286Y-91954819D01*
X171150000Y-91954819D02*
X171150000Y-90954819D01*
X171150000Y-90954819D02*
X171054762Y-91097676D01*
X171054762Y-91097676D02*
X170959524Y-91192914D01*
X170959524Y-91192914D02*
X170864286Y-91240533D01*
D10*
X174919919Y-93761904D02*
X175729442Y-93761904D01*
X175729442Y-93761904D02*
X175824680Y-93714285D01*
X175824680Y-93714285D02*
X175872300Y-93666666D01*
X175872300Y-93666666D02*
X175919919Y-93571428D01*
X175919919Y-93571428D02*
X175919919Y-93380952D01*
X175919919Y-93380952D02*
X175872300Y-93285714D01*
X175872300Y-93285714D02*
X175824680Y-93238095D01*
X175824680Y-93238095D02*
X175729442Y-93190476D01*
X175729442Y-93190476D02*
X174919919Y-93190476D01*
X175015157Y-92761904D02*
X174967538Y-92714285D01*
X174967538Y-92714285D02*
X174919919Y-92619047D01*
X174919919Y-92619047D02*
X174919919Y-92380952D01*
X174919919Y-92380952D02*
X174967538Y-92285714D01*
X174967538Y-92285714D02*
X175015157Y-92238095D01*
X175015157Y-92238095D02*
X175110395Y-92190476D01*
X175110395Y-92190476D02*
X175205633Y-92190476D01*
X175205633Y-92190476D02*
X175348490Y-92238095D01*
X175348490Y-92238095D02*
X175919919Y-92809523D01*
X175919919Y-92809523D02*
X175919919Y-92190476D01*
D12*
X165674819Y-93738094D02*
X164674819Y-93738094D01*
X164674819Y-93738094D02*
X164674819Y-93499999D01*
X164674819Y-93499999D02*
X164722438Y-93357142D01*
X164722438Y-93357142D02*
X164817676Y-93261904D01*
X164817676Y-93261904D02*
X164912914Y-93214285D01*
X164912914Y-93214285D02*
X165103390Y-93166666D01*
X165103390Y-93166666D02*
X165246247Y-93166666D01*
X165246247Y-93166666D02*
X165436723Y-93214285D01*
X165436723Y-93214285D02*
X165531961Y-93261904D01*
X165531961Y-93261904D02*
X165627200Y-93357142D01*
X165627200Y-93357142D02*
X165674819Y-93499999D01*
X165674819Y-93499999D02*
X165674819Y-93738094D01*
X164674819Y-92833332D02*
X164674819Y-92214285D01*
X164674819Y-92214285D02*
X165055771Y-92547618D01*
X165055771Y-92547618D02*
X165055771Y-92404761D01*
X165055771Y-92404761D02*
X165103390Y-92309523D01*
X165103390Y-92309523D02*
X165151009Y-92261904D01*
X165151009Y-92261904D02*
X165246247Y-92214285D01*
X165246247Y-92214285D02*
X165484342Y-92214285D01*
X165484342Y-92214285D02*
X165579580Y-92261904D01*
X165579580Y-92261904D02*
X165627200Y-92309523D01*
X165627200Y-92309523D02*
X165674819Y-92404761D01*
X165674819Y-92404761D02*
X165674819Y-92690475D01*
X165674819Y-92690475D02*
X165627200Y-92785713D01*
X165627200Y-92785713D02*
X165579580Y-92833332D01*
X165354819Y-89451904D02*
X164354819Y-89451904D01*
X165354819Y-88880476D02*
X164783390Y-89309047D01*
X164354819Y-88880476D02*
X164926247Y-89451904D01*
D13*
%TO.C,D2*%
X166280000Y-97359000D02*
X166280000Y-101641000D01*
X166280000Y-97358855D02*
G75*
G02*
X174930000Y-99500000I4060000J-2141145D01*
G01*
X174930000Y-99500000D02*
G75*
G02*
X166280000Y-101641145I-4590000J0D01*
G01*
X174780000Y-99500000D02*
G75*
G02*
X165900000Y-99500000I-4440000J0D01*
G01*
X165900000Y-99500000D02*
G75*
G02*
X174780000Y-99500000I4440000J0D01*
G01*
%TO.C,D1*%
X174520000Y-88141000D02*
X174520000Y-83859000D01*
X165870000Y-86000000D02*
G75*
G02*
X174520000Y-83858855I4590000J0D01*
G01*
X174520000Y-88141145D02*
G75*
G02*
X165870000Y-86000000I-4060000J2141145D01*
G01*
X174900000Y-86000000D02*
G75*
G02*
X166020000Y-86000000I-4440000J0D01*
G01*
X166020000Y-86000000D02*
G75*
G02*
X174900000Y-86000000I4440000J0D01*
G01*
%TO.C,D3*%
X163100000Y-90230000D02*
X163100000Y-90880000D01*
X163100000Y-95770000D02*
X163100000Y-95120000D01*
X164220000Y-91480000D02*
X161980000Y-91480000D01*
X164220000Y-91600000D02*
X161980000Y-91600000D01*
X164220000Y-91720000D02*
X161980000Y-91720000D01*
X164220000Y-90880000D02*
X161980000Y-90880000D01*
X161980000Y-95120000D01*
X164220000Y-95120000D01*
X164220000Y-90880000D01*
%TD*%
M02*
