%TF.GenerationSoftware,KiCad,Pcbnew,9.0.6-9.0.6~ubuntu24.04.1*%
%TF.CreationDate,2025-11-09T14:17:22-06:00*%
%TF.ProjectId,FlockOff,466c6f63-6b4f-4666-962e-6b696361645f,rev?*%
%TF.SameCoordinates,Original*%
%TF.FileFunction,Copper,L2,Bot*%
%TF.FilePolarity,Positive*%
%FSLAX46Y46*%
G04 Gerber Fmt 4.6, Leading zero omitted, Abs format (unit mm)*
G04 Created by KiCad (PCBNEW 9.0.6-9.0.6~ubuntu24.04.1) date 2025-11-09 14:17:22*
%MOMM*%
%LPD*%
G01*
G04 APERTURE LIST*
G04 Aperture macros list*
%AMRoundRect*
0 Rectangle with rounded corners*
0 $1 Rounding radius*
0 $2 $3 $4 $5 $6 $7 $8 $9 X,Y pos of 4 corners*
0 Add a 4 corners polygon primitive as box body*
4,1,4,$2,$3,$4,$5,$6,$7,$8,$9,$2,$3,0*
0 Add four circle primitives for the rounded corners*
1,1,$1+$1,$2,$3*
1,1,$1+$1,$4,$5*
1,1,$1+$1,$6,$7*
1,1,$1+$1,$8,$9*
0 Add four rect primitives between the rounded corners*
20,1,$1+$1,$2,$3,$4,$5,0*
20,1,$1+$1,$4,$5,$6,$7,0*
20,1,$1+$1,$6,$7,$8,$9,0*
20,1,$1+$1,$8,$9,$2,$3,0*%
G04 Aperture macros list end*
%TA.AperFunction,ComponentPad*%
%ADD10C,1.100000*%
%TD*%
%TA.AperFunction,ComponentPad*%
%ADD11RoundRect,0.250000X0.550000X-0.950000X0.550000X0.950000X-0.550000X0.950000X-0.550000X-0.950000X0*%
%TD*%
%TA.AperFunction,ComponentPad*%
%ADD12O,1.600000X2.400000*%
%TD*%
%TA.AperFunction,ComponentPad*%
%ADD13R,1.700000X1.700000*%
%TD*%
%TA.AperFunction,ComponentPad*%
%ADD14C,1.700000*%
%TD*%
%TA.AperFunction,ComponentPad*%
%ADD15RoundRect,0.250000X-0.550000X0.550000X-0.550000X-0.550000X0.550000X-0.550000X0.550000X0.550000X0*%
%TD*%
%TA.AperFunction,ComponentPad*%
%ADD16C,1.600000*%
%TD*%
%TA.AperFunction,Conductor*%
%ADD17C,0.200000*%
%TD*%
G04 APERTURE END LIST*
D10*
%TO.P,D2,1,Din*%
%TO.N,Net-(D1-Dout)*%
X172100000Y-99500000D03*
%TO.P,D2,2,Vcc*%
%TO.N,Net-(D1-Vcc)*%
X170800000Y-99500000D03*
%TO.P,D2,3,Gnd*%
%TO.N,GND*%
X169500000Y-99500000D03*
%TO.P,D2,4,Dout*%
%TO.N,unconnected-(D2-Dout-Pad4)*%
X168200000Y-99500000D03*
%TD*%
D11*
%TO.P,U1,1,GPIO1/D0/A0*%
%TO.N,unconnected-(U1-GPIO1{slash}D0{slash}A0-Pad1)*%
X138380000Y-101075000D03*
D12*
%TO.P,U1,2,GPIO2/DA/A1*%
%TO.N,unconnected-(U1-GPIO2{slash}DA{slash}A1-Pad2)*%
X140920000Y-101075000D03*
%TO.P,U1,3,GPIO3/D2/A2*%
%TO.N,unconnected-(U1-GPIO3{slash}D2{slash}A2-Pad3)*%
X143460000Y-101075000D03*
%TO.P,U1,4,GPIO4/D3/A3*%
%TO.N,unconnected-(U1-GPIO4{slash}D3{slash}A3-Pad4)*%
X146000000Y-101075000D03*
%TO.P,U1,5,GPIO5/D4/I2C_SDA*%
%TO.N,Net-(U1-GPIO5{slash}D4{slash}I2C_SDA)*%
X148540000Y-101075000D03*
%TO.P,U1,6,GPIO9/D5/I2C_SCL*%
%TO.N,Net-(U1-GPIO9{slash}D5{slash}I2C_SCL)*%
X151080000Y-101075000D03*
%TO.P,U1,7,U0TXD/D6/TX*%
%TO.N,unconnected-(U1-U0TXD{slash}D6{slash}TX-Pad7)*%
X153620000Y-101075000D03*
%TO.P,U1,8,U0RXD/D7/RX*%
%TO.N,unconnected-(U1-U0RXD{slash}D7{slash}RX-Pad8)*%
X153620000Y-85835000D03*
%TO.P,U1,9,GPIO7/D8/A8/SCK*%
%TO.N,unconnected-(U1-GPIO7{slash}D8{slash}A8{slash}SCK-Pad9)*%
X151080000Y-85835000D03*
%TO.P,U1,10,GPIO8/D9/A9/MISO*%
%TO.N,unconnected-(U1-GPIO8{slash}D9{slash}A9{slash}MISO-Pad10)*%
X148540000Y-85835000D03*
%TO.P,U1,11,GPIO9/D10/A10/MOSI*%
%TO.N,Net-(D1-Din)*%
X146000000Y-85835000D03*
%TO.P,U1,12,VCC_3V3*%
%TO.N,+3.3V*%
X143460000Y-85835000D03*
%TO.P,U1,13,GND*%
%TO.N,GND*%
X140920000Y-85835000D03*
%TO.P,U1,14,VBUS*%
%TO.N,+5V*%
X138380000Y-85835000D03*
%TD*%
D10*
%TO.P,D1,1,Din*%
%TO.N,Net-(D1-Din)*%
X168700000Y-86000000D03*
%TO.P,D1,2,Vcc*%
%TO.N,Net-(D1-Vcc)*%
X170000000Y-86000000D03*
%TO.P,D1,3,Gnd*%
%TO.N,GND*%
X171300000Y-86000000D03*
%TO.P,D1,4,Dout*%
%TO.N,Net-(D1-Dout)*%
X172600000Y-86000000D03*
%TD*%
D13*
%TO.P,U2,1,Vcc*%
%TO.N,+3.3V*%
X183882500Y-81000000D03*
D14*
%TO.P,U2,2,GND*%
%TO.N,GND*%
X186422500Y-81000000D03*
%TO.P,U2,3,RXD*%
%TO.N,Net-(U1-GPIO9{slash}D5{slash}I2C_SCL)*%
X188962500Y-81000000D03*
%TO.P,U2,4,TXD*%
%TO.N,Net-(U1-GPIO5{slash}D4{slash}I2C_SDA)*%
X191502500Y-81000000D03*
%TO.P,U2,5,PPS*%
%TO.N,unconnected-(U2-PPS-Pad5)*%
X194042500Y-81000000D03*
%TD*%
D15*
%TO.P,D3,1,K*%
%TO.N,Net-(D1-Vcc)*%
X163100000Y-89190000D03*
D16*
%TO.P,D3,2,A*%
%TO.N,+5V*%
X163100000Y-96810000D03*
%TD*%
D17*
%TO.N,GND*%
X171300000Y-86000000D02*
X171300000Y-84800000D01*
X169600000Y-100500000D02*
X170100000Y-101000000D01*
X169500000Y-100400000D02*
X169600000Y-100500000D01*
X169500000Y-99500000D02*
X169500000Y-100400000D01*
X171300000Y-84800000D02*
X171600000Y-84500000D01*
%TD*%
%TA.AperFunction,Conductor*%
%TO.N,GND*%
G36*
X208442539Y-76520185D02*
G01*
X208488294Y-76572989D01*
X208499500Y-76624500D01*
X208499500Y-109875500D01*
X208479815Y-109942539D01*
X208427011Y-109988294D01*
X208375500Y-109999500D01*
X136124500Y-109999500D01*
X136057461Y-109979815D01*
X136011706Y-109927011D01*
X136000500Y-109875500D01*
X136000500Y-106859568D01*
X136499500Y-106859568D01*
X136499500Y-107140431D01*
X136530942Y-107419494D01*
X136530945Y-107419512D01*
X136593439Y-107693317D01*
X136593443Y-107693329D01*
X136686200Y-107958411D01*
X136808053Y-108211442D01*
X136808055Y-108211445D01*
X136957477Y-108449248D01*
X137132584Y-108668825D01*
X137331175Y-108867416D01*
X137550752Y-109042523D01*
X137788555Y-109191945D01*
X138041592Y-109313801D01*
X138240680Y-109383465D01*
X138306670Y-109406556D01*
X138306682Y-109406560D01*
X138580491Y-109469055D01*
X138580497Y-109469055D01*
X138580505Y-109469057D01*
X138766547Y-109490018D01*
X138859569Y-109500499D01*
X138859572Y-109500500D01*
X138859575Y-109500500D01*
X139140428Y-109500500D01*
X139140429Y-109500499D01*
X139283055Y-109484429D01*
X139419494Y-109469057D01*
X139419499Y-109469056D01*
X139419509Y-109469055D01*
X139693318Y-109406560D01*
X139958408Y-109313801D01*
X140211445Y-109191945D01*
X140449248Y-109042523D01*
X140668825Y-108867416D01*
X140867416Y-108668825D01*
X141042523Y-108449248D01*
X141191945Y-108211445D01*
X141313801Y-107958408D01*
X141406560Y-107693318D01*
X141469055Y-107419509D01*
X141500500Y-107140425D01*
X141500500Y-106859575D01*
X141500499Y-106859568D01*
X202999500Y-106859568D01*
X202999500Y-107140431D01*
X203030942Y-107419494D01*
X203030945Y-107419512D01*
X203093439Y-107693317D01*
X203093443Y-107693329D01*
X203186200Y-107958411D01*
X203308053Y-108211442D01*
X203308055Y-108211445D01*
X203457477Y-108449248D01*
X203632584Y-108668825D01*
X203831175Y-108867416D01*
X204050752Y-109042523D01*
X204288555Y-109191945D01*
X204541592Y-109313801D01*
X204740680Y-109383465D01*
X204806670Y-109406556D01*
X204806682Y-109406560D01*
X205080491Y-109469055D01*
X205080497Y-109469055D01*
X205080505Y-109469057D01*
X205266547Y-109490018D01*
X205359569Y-109500499D01*
X205359572Y-109500500D01*
X205359575Y-109500500D01*
X205640428Y-109500500D01*
X205640429Y-109500499D01*
X205783055Y-109484429D01*
X205919494Y-109469057D01*
X205919499Y-109469056D01*
X205919509Y-109469055D01*
X206193318Y-109406560D01*
X206458408Y-109313801D01*
X206711445Y-109191945D01*
X206949248Y-109042523D01*
X207168825Y-108867416D01*
X207367416Y-108668825D01*
X207542523Y-108449248D01*
X207691945Y-108211445D01*
X207813801Y-107958408D01*
X207906560Y-107693318D01*
X207969055Y-107419509D01*
X208000500Y-107140425D01*
X208000500Y-106859575D01*
X207969055Y-106580491D01*
X207906560Y-106306682D01*
X207813801Y-106041592D01*
X207691945Y-105788555D01*
X207542523Y-105550752D01*
X207367416Y-105331175D01*
X207168825Y-105132584D01*
X206949248Y-104957477D01*
X206711445Y-104808055D01*
X206711442Y-104808053D01*
X206458411Y-104686200D01*
X206193329Y-104593443D01*
X206193317Y-104593439D01*
X205919512Y-104530945D01*
X205919494Y-104530942D01*
X205640431Y-104499500D01*
X205640425Y-104499500D01*
X205359575Y-104499500D01*
X205359568Y-104499500D01*
X205080505Y-104530942D01*
X205080487Y-104530945D01*
X204806682Y-104593439D01*
X204806670Y-104593443D01*
X204541588Y-104686200D01*
X204288557Y-104808053D01*
X204050753Y-104957476D01*
X203831175Y-105132583D01*
X203632583Y-105331175D01*
X203457476Y-105550753D01*
X203308053Y-105788557D01*
X203186200Y-106041588D01*
X203093443Y-106306670D01*
X203093439Y-106306682D01*
X203030945Y-106580487D01*
X203030942Y-106580505D01*
X202999500Y-106859568D01*
X141500499Y-106859568D01*
X141469055Y-106580491D01*
X141406560Y-106306682D01*
X141313801Y-106041592D01*
X141191945Y-105788555D01*
X141042523Y-105550752D01*
X140867416Y-105331175D01*
X140668825Y-105132584D01*
X140449248Y-104957477D01*
X140211445Y-104808055D01*
X140211442Y-104808053D01*
X139958411Y-104686200D01*
X139693329Y-104593443D01*
X139693317Y-104593439D01*
X139419512Y-104530945D01*
X139419494Y-104530942D01*
X139140431Y-104499500D01*
X139140425Y-104499500D01*
X138859575Y-104499500D01*
X138859568Y-104499500D01*
X138580505Y-104530942D01*
X138580487Y-104530945D01*
X138306682Y-104593439D01*
X138306670Y-104593443D01*
X138041588Y-104686200D01*
X137788557Y-104808053D01*
X137550753Y-104957476D01*
X137331175Y-105132583D01*
X137132583Y-105331175D01*
X136957476Y-105550753D01*
X136808053Y-105788557D01*
X136686200Y-106041588D01*
X136593443Y-106306670D01*
X136593439Y-106306682D01*
X136530945Y-106580487D01*
X136530942Y-106580505D01*
X136499500Y-106859568D01*
X136000500Y-106859568D01*
X136000500Y-100074983D01*
X137079500Y-100074983D01*
X137079500Y-102075001D01*
X137079501Y-102075018D01*
X137090000Y-102177796D01*
X137090001Y-102177799D01*
X137106818Y-102228548D01*
X137145186Y-102344334D01*
X137237288Y-102493656D01*
X137361344Y-102617712D01*
X137510666Y-102709814D01*
X137677203Y-102764999D01*
X137779991Y-102775500D01*
X138980008Y-102775499D01*
X139082797Y-102764999D01*
X139249334Y-102709814D01*
X139398656Y-102617712D01*
X139522712Y-102493656D01*
X139614814Y-102344334D01*
X139641955Y-102262427D01*
X139681726Y-102204984D01*
X139746242Y-102178161D01*
X139815018Y-102190476D01*
X139859977Y-102228547D01*
X139928030Y-102322213D01*
X139928034Y-102322219D01*
X140072786Y-102466971D01*
X140227749Y-102579556D01*
X140238390Y-102587287D01*
X140354607Y-102646503D01*
X140420776Y-102680218D01*
X140420778Y-102680218D01*
X140420781Y-102680220D01*
X140511856Y-102709812D01*
X140615465Y-102743477D01*
X140716557Y-102759488D01*
X140817648Y-102775500D01*
X140817649Y-102775500D01*
X141022351Y-102775500D01*
X141022352Y-102775500D01*
X141224534Y-102743477D01*
X141419219Y-102680220D01*
X141601610Y-102587287D01*
X141730482Y-102493657D01*
X141767213Y-102466971D01*
X141767215Y-102466968D01*
X141767219Y-102466966D01*
X141911966Y-102322219D01*
X141911968Y-102322215D01*
X141911971Y-102322213D01*
X142032284Y-102156614D01*
X142032285Y-102156613D01*
X142032287Y-102156610D01*
X142079516Y-102063917D01*
X142127489Y-102013123D01*
X142195310Y-101996328D01*
X142261445Y-102018865D01*
X142300483Y-102063917D01*
X142306140Y-102075018D01*
X142347715Y-102156614D01*
X142468028Y-102322213D01*
X142612786Y-102466971D01*
X142767749Y-102579556D01*
X142778390Y-102587287D01*
X142894607Y-102646503D01*
X142960776Y-102680218D01*
X142960778Y-102680218D01*
X142960781Y-102680220D01*
X143051856Y-102709812D01*
X143155465Y-102743477D01*
X143256557Y-102759488D01*
X143357648Y-102775500D01*
X143357649Y-102775500D01*
X143562351Y-102775500D01*
X143562352Y-102775500D01*
X143764534Y-102743477D01*
X143959219Y-102680220D01*
X144141610Y-102587287D01*
X144270482Y-102493657D01*
X144307213Y-102466971D01*
X144307215Y-102466968D01*
X144307219Y-102466966D01*
X144451966Y-102322219D01*
X144451968Y-102322215D01*
X144451971Y-102322213D01*
X144572284Y-102156614D01*
X144572285Y-102156613D01*
X144572287Y-102156610D01*
X144619516Y-102063917D01*
X144667489Y-102013123D01*
X144735310Y-101996328D01*
X144801445Y-102018865D01*
X144840483Y-102063917D01*
X144846140Y-102075018D01*
X144887715Y-102156614D01*
X145008028Y-102322213D01*
X145152786Y-102466971D01*
X145307749Y-102579556D01*
X145318390Y-102587287D01*
X145434607Y-102646503D01*
X145500776Y-102680218D01*
X145500778Y-102680218D01*
X145500781Y-102680220D01*
X145591856Y-102709812D01*
X145695465Y-102743477D01*
X145796557Y-102759488D01*
X145897648Y-102775500D01*
X145897649Y-102775500D01*
X146102351Y-102775500D01*
X146102352Y-102775500D01*
X146304534Y-102743477D01*
X146499219Y-102680220D01*
X146681610Y-102587287D01*
X146810482Y-102493657D01*
X146847213Y-102466971D01*
X146847215Y-102466968D01*
X146847219Y-102466966D01*
X146991966Y-102322219D01*
X146991968Y-102322215D01*
X146991971Y-102322213D01*
X147112284Y-102156614D01*
X147112285Y-102156613D01*
X147112287Y-102156610D01*
X147159516Y-102063917D01*
X147207489Y-102013123D01*
X147275310Y-101996328D01*
X147341445Y-102018865D01*
X147380483Y-102063917D01*
X147386140Y-102075018D01*
X147427715Y-102156614D01*
X147548028Y-102322213D01*
X147692786Y-102466971D01*
X147847749Y-102579556D01*
X147858390Y-102587287D01*
X147974607Y-102646503D01*
X148040776Y-102680218D01*
X148040778Y-102680218D01*
X148040781Y-102680220D01*
X148131856Y-102709812D01*
X148235465Y-102743477D01*
X148336557Y-102759488D01*
X148437648Y-102775500D01*
X148437649Y-102775500D01*
X148642351Y-102775500D01*
X148642352Y-102775500D01*
X148844534Y-102743477D01*
X149039219Y-102680220D01*
X149221610Y-102587287D01*
X149350482Y-102493657D01*
X149387213Y-102466971D01*
X149387215Y-102466968D01*
X149387219Y-102466966D01*
X149531966Y-102322219D01*
X149531968Y-102322215D01*
X149531971Y-102322213D01*
X149652284Y-102156614D01*
X149652285Y-102156613D01*
X149652287Y-102156610D01*
X149699516Y-102063917D01*
X149747489Y-102013123D01*
X149815310Y-101996328D01*
X149881445Y-102018865D01*
X149920483Y-102063917D01*
X149926140Y-102075018D01*
X149967715Y-102156614D01*
X150088028Y-102322213D01*
X150232786Y-102466971D01*
X150387749Y-102579556D01*
X150398390Y-102587287D01*
X150514607Y-102646503D01*
X150580776Y-102680218D01*
X150580778Y-102680218D01*
X150580781Y-102680220D01*
X150671856Y-102709812D01*
X150775465Y-102743477D01*
X150876557Y-102759488D01*
X150977648Y-102775500D01*
X150977649Y-102775500D01*
X151182351Y-102775500D01*
X151182352Y-102775500D01*
X151384534Y-102743477D01*
X151579219Y-102680220D01*
X151761610Y-102587287D01*
X151890482Y-102493657D01*
X151927213Y-102466971D01*
X151927215Y-102466968D01*
X151927219Y-102466966D01*
X152071966Y-102322219D01*
X152071968Y-102322215D01*
X152071971Y-102322213D01*
X152192284Y-102156614D01*
X152192285Y-102156613D01*
X152192287Y-102156610D01*
X152239516Y-102063917D01*
X152287489Y-102013123D01*
X152355310Y-101996328D01*
X152421445Y-102018865D01*
X152460483Y-102063917D01*
X152466140Y-102075018D01*
X152507715Y-102156614D01*
X152628028Y-102322213D01*
X152772786Y-102466971D01*
X152927749Y-102579556D01*
X152938390Y-102587287D01*
X153054607Y-102646503D01*
X153120776Y-102680218D01*
X153120778Y-102680218D01*
X153120781Y-102680220D01*
X153211856Y-102709812D01*
X153315465Y-102743477D01*
X153416557Y-102759488D01*
X153517648Y-102775500D01*
X153517649Y-102775500D01*
X153722351Y-102775500D01*
X153722352Y-102775500D01*
X153924534Y-102743477D01*
X154119219Y-102680220D01*
X154301610Y-102587287D01*
X154430482Y-102493657D01*
X154467213Y-102466971D01*
X154467215Y-102466968D01*
X154467219Y-102466966D01*
X154611966Y-102322219D01*
X154611968Y-102322215D01*
X154611971Y-102322213D01*
X154680021Y-102228548D01*
X154732287Y-102156610D01*
X154825220Y-101974219D01*
X154888477Y-101779534D01*
X154920500Y-101577352D01*
X154920500Y-100572648D01*
X154898056Y-100430942D01*
X154888477Y-100370465D01*
X154825218Y-100175776D01*
X154773865Y-100074991D01*
X154732287Y-99993390D01*
X154664436Y-99900000D01*
X154611971Y-99827786D01*
X154467213Y-99683028D01*
X154301614Y-99562715D01*
X154180350Y-99500928D01*
X154119223Y-99469781D01*
X153924534Y-99406522D01*
X153861446Y-99396530D01*
X167149500Y-99396530D01*
X167149500Y-99603469D01*
X167189868Y-99806412D01*
X167189870Y-99806420D01*
X167269058Y-99997596D01*
X167384024Y-100169657D01*
X167530342Y-100315975D01*
X167530345Y-100315977D01*
X167702402Y-100430941D01*
X167893580Y-100510130D01*
X168094016Y-100549999D01*
X168096530Y-100550499D01*
X168096534Y-100550500D01*
X168096535Y-100550500D01*
X168303466Y-100550500D01*
X168303467Y-100550499D01*
X168506420Y-100510130D01*
X168697598Y-100430941D01*
X168697603Y-100430937D01*
X168697606Y-100430936D01*
X168723236Y-100413810D01*
X168781559Y-100374840D01*
X168848234Y-100353962D01*
X168915615Y-100372446D01*
X168919340Y-100374840D01*
X169002632Y-100430494D01*
X169002641Y-100430499D01*
X169193725Y-100509649D01*
X169193733Y-100509651D01*
X169396579Y-100549999D01*
X169396583Y-100550000D01*
X169603417Y-100550000D01*
X169603420Y-100549999D01*
X169806266Y-100509651D01*
X169806274Y-100509649D01*
X169997358Y-100430499D01*
X169997370Y-100430493D01*
X170080658Y-100374841D01*
X170147335Y-100353962D01*
X170214716Y-100372446D01*
X170218423Y-100374828D01*
X170302402Y-100430941D01*
X170493580Y-100510130D01*
X170694016Y-100549999D01*
X170696530Y-100550499D01*
X170696534Y-100550500D01*
X170696535Y-100550500D01*
X170903466Y-100550500D01*
X170903467Y-100550499D01*
X171106420Y-100510130D01*
X171297598Y-100430941D01*
X171297603Y-100430937D01*
X171297606Y-100430936D01*
X171381108Y-100375141D01*
X171447785Y-100354262D01*
X171515166Y-100372746D01*
X171518892Y-100375141D01*
X171602393Y-100430936D01*
X171602401Y-100430940D01*
X171602402Y-100430941D01*
X171793580Y-100510130D01*
X171994016Y-100549999D01*
X171996530Y-100550499D01*
X171996534Y-100550500D01*
X171996535Y-100550500D01*
X172203466Y-100550500D01*
X172203467Y-100550499D01*
X172406420Y-100510130D01*
X172597598Y-100430941D01*
X172769655Y-100315977D01*
X172915977Y-100169655D01*
X173030941Y-99997598D01*
X173110130Y-99806420D01*
X173150500Y-99603465D01*
X173150500Y-99396535D01*
X173110130Y-99193580D01*
X173030941Y-99002402D01*
X172915977Y-98830345D01*
X172915975Y-98830342D01*
X172769657Y-98684024D01*
X172598261Y-98569502D01*
X172597598Y-98569059D01*
X172406420Y-98489870D01*
X172406412Y-98489868D01*
X172203469Y-98449500D01*
X172203465Y-98449500D01*
X171996535Y-98449500D01*
X171996530Y-98449500D01*
X171793587Y-98489868D01*
X171793579Y-98489870D01*
X171602402Y-98569058D01*
X171518891Y-98624859D01*
X171452213Y-98645737D01*
X171384833Y-98627252D01*
X171381109Y-98624859D01*
X171297597Y-98569058D01*
X171106420Y-98489870D01*
X171106412Y-98489868D01*
X170903469Y-98449500D01*
X170903465Y-98449500D01*
X170696535Y-98449500D01*
X170696530Y-98449500D01*
X170493587Y-98489868D01*
X170493579Y-98489870D01*
X170302401Y-98569059D01*
X170218438Y-98625160D01*
X170151761Y-98646037D01*
X170084381Y-98627552D01*
X170080658Y-98625159D01*
X169997361Y-98569501D01*
X169806274Y-98490350D01*
X169806266Y-98490348D01*
X169603420Y-98450000D01*
X169396579Y-98450000D01*
X169193733Y-98490348D01*
X169193725Y-98490350D01*
X169002637Y-98569502D01*
X168919337Y-98625160D01*
X168852660Y-98646037D01*
X168785280Y-98627552D01*
X168781587Y-98625178D01*
X168697598Y-98569059D01*
X168697599Y-98569059D01*
X168697597Y-98569058D01*
X168506420Y-98489870D01*
X168506412Y-98489868D01*
X168303469Y-98449500D01*
X168303465Y-98449500D01*
X168096535Y-98449500D01*
X168096530Y-98449500D01*
X167893587Y-98489868D01*
X167893579Y-98489870D01*
X167702403Y-98569058D01*
X167530342Y-98684024D01*
X167384024Y-98830342D01*
X167269058Y-99002403D01*
X167189870Y-99193579D01*
X167189868Y-99193587D01*
X167149500Y-99396530D01*
X153861446Y-99396530D01*
X153749995Y-99378878D01*
X153722352Y-99374500D01*
X153517648Y-99374500D01*
X153493329Y-99378351D01*
X153315465Y-99406522D01*
X153120776Y-99469781D01*
X152938386Y-99562715D01*
X152772786Y-99683028D01*
X152628028Y-99827786D01*
X152507715Y-99993386D01*
X152460485Y-100086080D01*
X152412510Y-100136876D01*
X152344689Y-100153671D01*
X152278554Y-100131134D01*
X152239515Y-100086080D01*
X152233861Y-100074983D01*
X152192287Y-99993390D01*
X152124436Y-99900000D01*
X152071971Y-99827786D01*
X151927213Y-99683028D01*
X151761613Y-99562715D01*
X151761612Y-99562714D01*
X151761610Y-99562713D01*
X151701898Y-99532288D01*
X151579223Y-99469781D01*
X151384534Y-99406522D01*
X151209995Y-99378878D01*
X151182352Y-99374500D01*
X150977648Y-99374500D01*
X150953329Y-99378351D01*
X150775465Y-99406522D01*
X150580776Y-99469781D01*
X150398386Y-99562715D01*
X150232786Y-99683028D01*
X150088028Y-99827786D01*
X149967715Y-99993386D01*
X149920485Y-100086080D01*
X149872510Y-100136876D01*
X149804689Y-100153671D01*
X149738554Y-100131134D01*
X149699515Y-100086080D01*
X149693861Y-100074983D01*
X149652287Y-99993390D01*
X149584436Y-99900000D01*
X149531971Y-99827786D01*
X149387213Y-99683028D01*
X149221613Y-99562715D01*
X149221612Y-99562714D01*
X149221610Y-99562713D01*
X149161898Y-99532288D01*
X149039223Y-99469781D01*
X148844534Y-99406522D01*
X148669995Y-99378878D01*
X148642352Y-99374500D01*
X148437648Y-99374500D01*
X148413329Y-99378351D01*
X148235465Y-99406522D01*
X148040776Y-99469781D01*
X147858386Y-99562715D01*
X147692786Y-99683028D01*
X147548028Y-99827786D01*
X147427715Y-99993386D01*
X147380485Y-100086080D01*
X147332510Y-100136876D01*
X147264689Y-100153671D01*
X147198554Y-100131134D01*
X147159515Y-100086080D01*
X147153861Y-100074983D01*
X147112287Y-99993390D01*
X147044436Y-99900000D01*
X146991971Y-99827786D01*
X146847213Y-99683028D01*
X146681613Y-99562715D01*
X146681612Y-99562714D01*
X146681610Y-99562713D01*
X146621898Y-99532288D01*
X146499223Y-99469781D01*
X146304534Y-99406522D01*
X146129995Y-99378878D01*
X146102352Y-99374500D01*
X145897648Y-99374500D01*
X145873329Y-99378351D01*
X145695465Y-99406522D01*
X145500776Y-99469781D01*
X145318386Y-99562715D01*
X145152786Y-99683028D01*
X145008028Y-99827786D01*
X144887715Y-99993386D01*
X144840485Y-100086080D01*
X144792510Y-100136876D01*
X144724689Y-100153671D01*
X144658554Y-100131134D01*
X144619515Y-100086080D01*
X144613861Y-100074983D01*
X144572287Y-99993390D01*
X144504436Y-99900000D01*
X144451971Y-99827786D01*
X144307213Y-99683028D01*
X144141613Y-99562715D01*
X144141612Y-99562714D01*
X144141610Y-99562713D01*
X144081898Y-99532288D01*
X143959223Y-99469781D01*
X143764534Y-99406522D01*
X143589995Y-99378878D01*
X143562352Y-99374500D01*
X143357648Y-99374500D01*
X143333329Y-99378351D01*
X143155465Y-99406522D01*
X142960776Y-99469781D01*
X142778386Y-99562715D01*
X142612786Y-99683028D01*
X142468028Y-99827786D01*
X142347715Y-99993386D01*
X142300485Y-100086080D01*
X142252510Y-100136876D01*
X142184689Y-100153671D01*
X142118554Y-100131134D01*
X142079515Y-100086080D01*
X142073861Y-100074983D01*
X142032287Y-99993390D01*
X141964436Y-99900000D01*
X141911971Y-99827786D01*
X141767213Y-99683028D01*
X141601613Y-99562715D01*
X141601612Y-99562714D01*
X141601610Y-99562713D01*
X141541898Y-99532288D01*
X141419223Y-99469781D01*
X141224534Y-99406522D01*
X141049995Y-99378878D01*
X141022352Y-99374500D01*
X140817648Y-99374500D01*
X140793329Y-99378351D01*
X140615465Y-99406522D01*
X140420776Y-99469781D01*
X140238386Y-99562715D01*
X140072786Y-99683028D01*
X139928032Y-99827782D01*
X139928028Y-99827787D01*
X139859978Y-99921451D01*
X139804648Y-99964117D01*
X139735035Y-99970096D01*
X139673240Y-99937490D01*
X139641954Y-99887570D01*
X139622144Y-99827787D01*
X139614814Y-99805666D01*
X139522712Y-99656344D01*
X139398656Y-99532288D01*
X139249334Y-99440186D01*
X139082797Y-99385001D01*
X139082795Y-99385000D01*
X138980010Y-99374500D01*
X137779998Y-99374500D01*
X137779981Y-99374501D01*
X137677203Y-99385000D01*
X137677200Y-99385001D01*
X137510668Y-99440185D01*
X137510663Y-99440187D01*
X137361342Y-99532289D01*
X137237289Y-99656342D01*
X137145187Y-99805663D01*
X137145185Y-99805668D01*
X137118046Y-99887570D01*
X137090001Y-99972203D01*
X137090001Y-99972204D01*
X137090000Y-99972204D01*
X137079500Y-100074983D01*
X136000500Y-100074983D01*
X136000500Y-96707648D01*
X161799500Y-96707648D01*
X161799500Y-96912351D01*
X161831522Y-97114534D01*
X161894781Y-97309223D01*
X161987715Y-97491613D01*
X162108028Y-97657213D01*
X162252786Y-97801971D01*
X162407749Y-97914556D01*
X162418390Y-97922287D01*
X162534607Y-97981503D01*
X162600776Y-98015218D01*
X162600778Y-98015218D01*
X162600781Y-98015220D01*
X162705137Y-98049127D01*
X162795465Y-98078477D01*
X162896557Y-98094488D01*
X162997648Y-98110500D01*
X162997649Y-98110500D01*
X163202351Y-98110500D01*
X163202352Y-98110500D01*
X163404534Y-98078477D01*
X163599219Y-98015220D01*
X163781610Y-97922287D01*
X163874590Y-97854732D01*
X163947213Y-97801971D01*
X163947215Y-97801968D01*
X163947219Y-97801966D01*
X164091966Y-97657219D01*
X164091968Y-97657215D01*
X164091971Y-97657213D01*
X164144732Y-97584590D01*
X164212287Y-97491610D01*
X164305220Y-97309219D01*
X164368477Y-97114534D01*
X164400500Y-96912352D01*
X164400500Y-96707648D01*
X164368477Y-96505466D01*
X164305220Y-96310781D01*
X164305218Y-96310778D01*
X164305218Y-96310776D01*
X164271503Y-96244607D01*
X164212287Y-96128390D01*
X164204556Y-96117749D01*
X164091971Y-95962786D01*
X163947213Y-95818028D01*
X163781613Y-95697715D01*
X163781612Y-95697714D01*
X163781610Y-95697713D01*
X163724653Y-95668691D01*
X163599223Y-95604781D01*
X163404534Y-95541522D01*
X163229995Y-95513878D01*
X163202352Y-95509500D01*
X162997648Y-95509500D01*
X162973329Y-95513351D01*
X162795465Y-95541522D01*
X162600776Y-95604781D01*
X162418386Y-95697715D01*
X162252786Y-95818028D01*
X162108028Y-95962786D01*
X161987715Y-96128386D01*
X161894781Y-96310776D01*
X161831522Y-96505465D01*
X161799500Y-96707648D01*
X136000500Y-96707648D01*
X136000500Y-88589983D01*
X161799500Y-88589983D01*
X161799500Y-89790001D01*
X161799501Y-89790018D01*
X161810000Y-89892796D01*
X161810001Y-89892799D01*
X161865185Y-90059331D01*
X161865186Y-90059334D01*
X161957288Y-90208656D01*
X162081344Y-90332712D01*
X162230666Y-90424814D01*
X162397203Y-90479999D01*
X162499991Y-90490500D01*
X163700008Y-90490499D01*
X163802797Y-90479999D01*
X163969334Y-90424814D01*
X164118656Y-90332712D01*
X164242712Y-90208656D01*
X164334814Y-90059334D01*
X164389999Y-89892797D01*
X164400500Y-89790009D01*
X164400499Y-88589992D01*
X164389999Y-88487203D01*
X164334814Y-88320666D01*
X164242712Y-88171344D01*
X164118656Y-88047288D01*
X163969334Y-87955186D01*
X163802797Y-87900001D01*
X163802795Y-87900000D01*
X163700010Y-87889500D01*
X162499998Y-87889500D01*
X162499981Y-87889501D01*
X162397203Y-87900000D01*
X162397200Y-87900001D01*
X162230668Y-87955185D01*
X162230663Y-87955187D01*
X162081342Y-88047289D01*
X161957289Y-88171342D01*
X161865187Y-88320663D01*
X161865186Y-88320666D01*
X161810001Y-88487203D01*
X161810001Y-88487204D01*
X161810000Y-88487204D01*
X161799500Y-88589983D01*
X136000500Y-88589983D01*
X136000500Y-85332648D01*
X137079500Y-85332648D01*
X137079500Y-86337351D01*
X137111522Y-86539534D01*
X137174781Y-86734223D01*
X137223129Y-86829109D01*
X137246583Y-86875141D01*
X137267715Y-86916613D01*
X137388028Y-87082213D01*
X137532786Y-87226971D01*
X137687749Y-87339556D01*
X137698390Y-87347287D01*
X137814607Y-87406503D01*
X137880776Y-87440218D01*
X137880778Y-87440218D01*
X137880781Y-87440220D01*
X137985137Y-87474127D01*
X138075465Y-87503477D01*
X138176557Y-87519488D01*
X138277648Y-87535500D01*
X138277649Y-87535500D01*
X138482351Y-87535500D01*
X138482352Y-87535500D01*
X138684534Y-87503477D01*
X138879219Y-87440220D01*
X139061610Y-87347287D01*
X139154590Y-87279732D01*
X139227213Y-87226971D01*
X139227215Y-87226968D01*
X139227219Y-87226966D01*
X139371966Y-87082219D01*
X139371968Y-87082215D01*
X139371971Y-87082213D01*
X139492284Y-86916614D01*
X139492286Y-86916611D01*
X139492287Y-86916610D01*
X139539795Y-86823369D01*
X139587770Y-86772574D01*
X139655591Y-86755779D01*
X139721725Y-86778316D01*
X139760765Y-86823370D01*
X139808140Y-86916349D01*
X139928417Y-87081894D01*
X139928417Y-87081895D01*
X140073104Y-87226582D01*
X140238650Y-87346859D01*
X140420968Y-87439754D01*
X140615578Y-87502988D01*
X140670000Y-87511607D01*
X140670000Y-86150686D01*
X140674394Y-86155080D01*
X140765606Y-86207741D01*
X140867339Y-86235000D01*
X140972661Y-86235000D01*
X141074394Y-86207741D01*
X141165606Y-86155080D01*
X141170000Y-86150686D01*
X141170000Y-87511606D01*
X141224421Y-87502988D01*
X141419031Y-87439754D01*
X141601349Y-87346859D01*
X141766894Y-87226582D01*
X141766895Y-87226582D01*
X141911582Y-87081895D01*
X141911582Y-87081894D01*
X142031861Y-86916347D01*
X142079234Y-86823371D01*
X142127208Y-86772575D01*
X142195028Y-86755779D01*
X142261164Y-86778316D01*
X142300203Y-86823369D01*
X142347713Y-86916611D01*
X142468028Y-87082213D01*
X142612786Y-87226971D01*
X142767749Y-87339556D01*
X142778390Y-87347287D01*
X142894607Y-87406503D01*
X142960776Y-87440218D01*
X142960778Y-87440218D01*
X142960781Y-87440220D01*
X143065137Y-87474127D01*
X143155465Y-87503477D01*
X143256557Y-87519488D01*
X143357648Y-87535500D01*
X143357649Y-87535500D01*
X143562351Y-87535500D01*
X143562352Y-87535500D01*
X143764534Y-87503477D01*
X143959219Y-87440220D01*
X144141610Y-87347287D01*
X144234590Y-87279732D01*
X144307213Y-87226971D01*
X144307215Y-87226968D01*
X144307219Y-87226966D01*
X144451966Y-87082219D01*
X144451968Y-87082215D01*
X144451971Y-87082213D01*
X144572284Y-86916614D01*
X144572286Y-86916611D01*
X144572287Y-86916610D01*
X144619516Y-86823917D01*
X144667489Y-86773123D01*
X144735310Y-86756328D01*
X144801445Y-86778865D01*
X144840483Y-86823917D01*
X144884348Y-86910006D01*
X144887715Y-86916614D01*
X145008028Y-87082213D01*
X145152786Y-87226971D01*
X145307749Y-87339556D01*
X145318390Y-87347287D01*
X145434607Y-87406503D01*
X145500776Y-87440218D01*
X145500778Y-87440218D01*
X145500781Y-87440220D01*
X145605137Y-87474127D01*
X145695465Y-87503477D01*
X145796557Y-87519488D01*
X145897648Y-87535500D01*
X145897649Y-87535500D01*
X146102351Y-87535500D01*
X146102352Y-87535500D01*
X146304534Y-87503477D01*
X146499219Y-87440220D01*
X146681610Y-87347287D01*
X146774590Y-87279732D01*
X146847213Y-87226971D01*
X146847215Y-87226968D01*
X146847219Y-87226966D01*
X146991966Y-87082219D01*
X146991968Y-87082215D01*
X146991971Y-87082213D01*
X147112284Y-86916614D01*
X147112286Y-86916611D01*
X147112287Y-86916610D01*
X147159516Y-86823917D01*
X147207489Y-86773123D01*
X147275310Y-86756328D01*
X147341445Y-86778865D01*
X147380483Y-86823917D01*
X147424348Y-86910006D01*
X147427715Y-86916614D01*
X147548028Y-87082213D01*
X147692786Y-87226971D01*
X147847749Y-87339556D01*
X147858390Y-87347287D01*
X147974607Y-87406503D01*
X148040776Y-87440218D01*
X148040778Y-87440218D01*
X148040781Y-87440220D01*
X148145137Y-87474127D01*
X148235465Y-87503477D01*
X148336557Y-87519488D01*
X148437648Y-87535500D01*
X148437649Y-87535500D01*
X148642351Y-87535500D01*
X148642352Y-87535500D01*
X148844534Y-87503477D01*
X149039219Y-87440220D01*
X149221610Y-87347287D01*
X149314590Y-87279732D01*
X149387213Y-87226971D01*
X149387215Y-87226968D01*
X149387219Y-87226966D01*
X149531966Y-87082219D01*
X149531968Y-87082215D01*
X149531971Y-87082213D01*
X149652284Y-86916614D01*
X149652286Y-86916611D01*
X149652287Y-86916610D01*
X149699516Y-86823917D01*
X149747489Y-86773123D01*
X149815310Y-86756328D01*
X149881445Y-86778865D01*
X149920483Y-86823917D01*
X149964348Y-86910006D01*
X149967715Y-86916614D01*
X150088028Y-87082213D01*
X150232786Y-87226971D01*
X150387749Y-87339556D01*
X150398390Y-87347287D01*
X150514607Y-87406503D01*
X150580776Y-87440218D01*
X150580778Y-87440218D01*
X150580781Y-87440220D01*
X150685137Y-87474127D01*
X150775465Y-87503477D01*
X150876557Y-87519488D01*
X150977648Y-87535500D01*
X150977649Y-87535500D01*
X151182351Y-87535500D01*
X151182352Y-87535500D01*
X151384534Y-87503477D01*
X151579219Y-87440220D01*
X151761610Y-87347287D01*
X151854590Y-87279732D01*
X151927213Y-87226971D01*
X151927215Y-87226968D01*
X151927219Y-87226966D01*
X152071966Y-87082219D01*
X152071968Y-87082215D01*
X152071971Y-87082213D01*
X152192284Y-86916614D01*
X152192286Y-86916611D01*
X152192287Y-86916610D01*
X152239516Y-86823917D01*
X152287489Y-86773123D01*
X152355310Y-86756328D01*
X152421445Y-86778865D01*
X152460483Y-86823917D01*
X152504348Y-86910006D01*
X152507715Y-86916614D01*
X152628028Y-87082213D01*
X152772786Y-87226971D01*
X152927749Y-87339556D01*
X152938390Y-87347287D01*
X153054607Y-87406503D01*
X153120776Y-87440218D01*
X153120778Y-87440218D01*
X153120781Y-87440220D01*
X153225137Y-87474127D01*
X153315465Y-87503477D01*
X153416557Y-87519488D01*
X153517648Y-87535500D01*
X153517649Y-87535500D01*
X153722351Y-87535500D01*
X153722352Y-87535500D01*
X153924534Y-87503477D01*
X154119219Y-87440220D01*
X154301610Y-87347287D01*
X154394590Y-87279732D01*
X154467213Y-87226971D01*
X154467215Y-87226968D01*
X154467219Y-87226966D01*
X154611966Y-87082219D01*
X154611968Y-87082215D01*
X154611971Y-87082213D01*
X154721874Y-86930942D01*
X154732287Y-86916610D01*
X154825220Y-86734219D01*
X154888477Y-86539534D01*
X154920500Y-86337352D01*
X154920500Y-85896530D01*
X167649500Y-85896530D01*
X167649500Y-86103469D01*
X167677773Y-86245606D01*
X167689870Y-86306420D01*
X167769059Y-86497598D01*
X167797080Y-86539534D01*
X167884024Y-86669657D01*
X168030342Y-86815975D01*
X168030345Y-86815977D01*
X168202402Y-86930941D01*
X168393580Y-87010130D01*
X168594016Y-87049999D01*
X168596530Y-87050499D01*
X168596534Y-87050500D01*
X168596535Y-87050500D01*
X168803466Y-87050500D01*
X168803467Y-87050499D01*
X169006420Y-87010130D01*
X169197598Y-86930941D01*
X169197603Y-86930937D01*
X169197606Y-86930936D01*
X169281108Y-86875141D01*
X169347785Y-86854262D01*
X169415166Y-86872746D01*
X169418892Y-86875141D01*
X169502393Y-86930936D01*
X169502401Y-86930940D01*
X169502402Y-86930941D01*
X169693580Y-87010130D01*
X169894016Y-87049999D01*
X169896530Y-87050499D01*
X169896534Y-87050500D01*
X169896535Y-87050500D01*
X170103466Y-87050500D01*
X170103467Y-87050499D01*
X170306420Y-87010130D01*
X170497598Y-86930941D01*
X170497603Y-86930937D01*
X170497606Y-86930936D01*
X170523236Y-86913810D01*
X170581559Y-86874840D01*
X170648234Y-86853962D01*
X170715615Y-86872446D01*
X170719340Y-86874840D01*
X170802632Y-86930494D01*
X170802641Y-86930499D01*
X170993725Y-87009649D01*
X170993733Y-87009651D01*
X171196579Y-87049999D01*
X171196583Y-87050000D01*
X171403417Y-87050000D01*
X171403420Y-87049999D01*
X171606266Y-87009651D01*
X171606274Y-87009649D01*
X171797358Y-86930499D01*
X171797370Y-86930493D01*
X171880658Y-86874841D01*
X171947335Y-86853962D01*
X172014716Y-86872446D01*
X172018423Y-86874828D01*
X172102402Y-86930941D01*
X172293580Y-87010130D01*
X172494016Y-87049999D01*
X172496530Y-87050499D01*
X172496534Y-87050500D01*
X172496535Y-87050500D01*
X172703466Y-87050500D01*
X172703467Y-87050499D01*
X172906420Y-87010130D01*
X173097598Y-86930941D01*
X173269655Y-86815977D01*
X173415977Y-86669655D01*
X173530941Y-86497598D01*
X173610130Y-86306420D01*
X173650500Y-86103465D01*
X173650500Y-85896535D01*
X173610130Y-85693580D01*
X173530941Y-85502402D01*
X173415977Y-85330345D01*
X173415975Y-85330342D01*
X173269657Y-85184024D01*
X173098261Y-85069502D01*
X173097598Y-85069059D01*
X172906420Y-84989870D01*
X172906412Y-84989868D01*
X172703469Y-84949500D01*
X172703465Y-84949500D01*
X172496535Y-84949500D01*
X172496530Y-84949500D01*
X172293587Y-84989868D01*
X172293579Y-84989870D01*
X172102401Y-85069059D01*
X172018438Y-85125160D01*
X171951761Y-85146037D01*
X171884381Y-85127552D01*
X171880658Y-85125159D01*
X171797361Y-85069501D01*
X171606274Y-84990350D01*
X171606266Y-84990348D01*
X171403420Y-84950000D01*
X171196579Y-84950000D01*
X170993733Y-84990348D01*
X170993725Y-84990350D01*
X170802637Y-85069502D01*
X170719337Y-85125160D01*
X170652660Y-85146037D01*
X170585280Y-85127552D01*
X170581587Y-85125178D01*
X170497598Y-85069059D01*
X170497599Y-85069059D01*
X170497597Y-85069058D01*
X170306420Y-84989870D01*
X170306412Y-84989868D01*
X170103469Y-84949500D01*
X170103465Y-84949500D01*
X169896535Y-84949500D01*
X169896530Y-84949500D01*
X169693587Y-84989868D01*
X169693579Y-84989870D01*
X169502402Y-85069058D01*
X169418891Y-85124859D01*
X169352213Y-85145737D01*
X169284833Y-85127252D01*
X169281109Y-85124859D01*
X169197597Y-85069058D01*
X169006420Y-84989870D01*
X169006412Y-84989868D01*
X168803469Y-84949500D01*
X168803465Y-84949500D01*
X168596535Y-84949500D01*
X168596530Y-84949500D01*
X168393587Y-84989868D01*
X168393579Y-84989870D01*
X168202403Y-85069058D01*
X168030342Y-85184024D01*
X167884024Y-85330342D01*
X167769058Y-85502403D01*
X167689870Y-85693579D01*
X167689868Y-85693587D01*
X167649500Y-85896530D01*
X154920500Y-85896530D01*
X154920500Y-85332648D01*
X154888477Y-85130466D01*
X154825220Y-84935781D01*
X154825218Y-84935778D01*
X154825218Y-84935776D01*
X154732419Y-84753650D01*
X154732287Y-84753390D01*
X154724556Y-84742749D01*
X154611971Y-84587786D01*
X154467213Y-84443028D01*
X154301613Y-84322715D01*
X154301612Y-84322714D01*
X154301610Y-84322713D01*
X154244653Y-84293691D01*
X154119223Y-84229781D01*
X153924534Y-84166522D01*
X153749995Y-84138878D01*
X153722352Y-84134500D01*
X153517648Y-84134500D01*
X153493329Y-84138351D01*
X153315465Y-84166522D01*
X153120776Y-84229781D01*
X152938386Y-84322715D01*
X152772786Y-84443028D01*
X152628028Y-84587786D01*
X152507715Y-84753386D01*
X152460485Y-84846080D01*
X152412510Y-84896876D01*
X152344689Y-84913671D01*
X152278554Y-84891134D01*
X152239515Y-84846080D01*
X152192419Y-84753650D01*
X152192287Y-84753390D01*
X152184556Y-84742749D01*
X152071971Y-84587786D01*
X151927213Y-84443028D01*
X151761613Y-84322715D01*
X151761612Y-84322714D01*
X151761610Y-84322713D01*
X151704653Y-84293691D01*
X151579223Y-84229781D01*
X151384534Y-84166522D01*
X151209995Y-84138878D01*
X151182352Y-84134500D01*
X150977648Y-84134500D01*
X150953329Y-84138351D01*
X150775465Y-84166522D01*
X150580776Y-84229781D01*
X150398386Y-84322715D01*
X150232786Y-84443028D01*
X150088028Y-84587786D01*
X149967715Y-84753386D01*
X149920485Y-84846080D01*
X149872510Y-84896876D01*
X149804689Y-84913671D01*
X149738554Y-84891134D01*
X149699515Y-84846080D01*
X149652419Y-84753650D01*
X149652287Y-84753390D01*
X149644556Y-84742749D01*
X149531971Y-84587786D01*
X149387213Y-84443028D01*
X149221613Y-84322715D01*
X149221612Y-84322714D01*
X149221610Y-84322713D01*
X149164653Y-84293691D01*
X149039223Y-84229781D01*
X148844534Y-84166522D01*
X148669995Y-84138878D01*
X148642352Y-84134500D01*
X148437648Y-84134500D01*
X148413329Y-84138351D01*
X148235465Y-84166522D01*
X148040776Y-84229781D01*
X147858386Y-84322715D01*
X147692786Y-84443028D01*
X147548028Y-84587786D01*
X147427715Y-84753386D01*
X147380485Y-84846080D01*
X147332510Y-84896876D01*
X147264689Y-84913671D01*
X147198554Y-84891134D01*
X147159515Y-84846080D01*
X147112419Y-84753650D01*
X147112287Y-84753390D01*
X147104556Y-84742749D01*
X146991971Y-84587786D01*
X146847213Y-84443028D01*
X146681613Y-84322715D01*
X146681612Y-84322714D01*
X146681610Y-84322713D01*
X146624653Y-84293691D01*
X146499223Y-84229781D01*
X146304534Y-84166522D01*
X146129995Y-84138878D01*
X146102352Y-84134500D01*
X145897648Y-84134500D01*
X145873329Y-84138351D01*
X145695465Y-84166522D01*
X145500776Y-84229781D01*
X145318386Y-84322715D01*
X145152786Y-84443028D01*
X145008028Y-84587786D01*
X144887715Y-84753386D01*
X144840485Y-84846080D01*
X144792510Y-84896876D01*
X144724689Y-84913671D01*
X144658554Y-84891134D01*
X144619515Y-84846080D01*
X144572419Y-84753650D01*
X144572287Y-84753390D01*
X144564556Y-84742749D01*
X144451971Y-84587786D01*
X144307213Y-84443028D01*
X144141613Y-84322715D01*
X144141612Y-84322714D01*
X144141610Y-84322713D01*
X144084653Y-84293691D01*
X143959223Y-84229781D01*
X143764534Y-84166522D01*
X143589995Y-84138878D01*
X143562352Y-84134500D01*
X143357648Y-84134500D01*
X143333329Y-84138351D01*
X143155465Y-84166522D01*
X142960776Y-84229781D01*
X142778386Y-84322715D01*
X142612786Y-84443028D01*
X142468028Y-84587786D01*
X142347713Y-84753388D01*
X142300203Y-84846630D01*
X142252228Y-84897426D01*
X142184407Y-84914220D01*
X142118272Y-84891682D01*
X142079234Y-84846628D01*
X142031861Y-84753652D01*
X141911582Y-84588105D01*
X141911582Y-84588104D01*
X141766895Y-84443417D01*
X141601349Y-84323140D01*
X141419029Y-84230244D01*
X141224413Y-84167009D01*
X141170000Y-84158390D01*
X141170000Y-85519314D01*
X141165606Y-85514920D01*
X141074394Y-85462259D01*
X140972661Y-85435000D01*
X140867339Y-85435000D01*
X140765606Y-85462259D01*
X140674394Y-85514920D01*
X140670000Y-85519314D01*
X140670000Y-84158390D01*
X140615586Y-84167009D01*
X140420970Y-84230244D01*
X140238650Y-84323140D01*
X140073105Y-84443417D01*
X140073104Y-84443417D01*
X139928417Y-84588104D01*
X139928417Y-84588105D01*
X139808140Y-84753650D01*
X139760765Y-84846629D01*
X139712790Y-84897425D01*
X139644969Y-84914220D01*
X139578834Y-84891682D01*
X139539795Y-84846629D01*
X139492419Y-84753650D01*
X139492287Y-84753390D01*
X139484556Y-84742749D01*
X139371971Y-84587786D01*
X139227213Y-84443028D01*
X139061613Y-84322715D01*
X139061612Y-84322714D01*
X139061610Y-84322713D01*
X139004653Y-84293691D01*
X138879223Y-84229781D01*
X138684534Y-84166522D01*
X138509995Y-84138878D01*
X138482352Y-84134500D01*
X138277648Y-84134500D01*
X138253329Y-84138351D01*
X138075465Y-84166522D01*
X137880776Y-84229781D01*
X137698386Y-84322715D01*
X137532786Y-84443028D01*
X137388028Y-84587786D01*
X137267715Y-84753386D01*
X137174781Y-84935776D01*
X137111522Y-85130465D01*
X137079500Y-85332648D01*
X136000500Y-85332648D01*
X136000500Y-79359568D01*
X136499500Y-79359568D01*
X136499500Y-79640431D01*
X136530942Y-79919494D01*
X136530945Y-79919512D01*
X136593439Y-80193317D01*
X136593443Y-80193329D01*
X136686200Y-80458411D01*
X136808053Y-80711442D01*
X136808055Y-80711445D01*
X136957477Y-80949248D01*
X137132584Y-81168825D01*
X137331175Y-81367416D01*
X137550752Y-81542523D01*
X137788555Y-81691945D01*
X137788557Y-81691946D01*
X137821514Y-81707817D01*
X138041592Y-81813801D01*
X138240680Y-81883465D01*
X138306670Y-81906556D01*
X138306682Y-81906560D01*
X138580491Y-81969055D01*
X138580497Y-81969055D01*
X138580505Y-81969057D01*
X138766547Y-81990018D01*
X138859569Y-82000499D01*
X138859572Y-82000500D01*
X138859575Y-82000500D01*
X139140428Y-82000500D01*
X139140429Y-82000499D01*
X139283055Y-81984429D01*
X139419494Y-81969057D01*
X139419499Y-81969056D01*
X139419509Y-81969055D01*
X139693318Y-81906560D01*
X139958408Y-81813801D01*
X140211445Y-81691945D01*
X140449248Y-81542523D01*
X140668825Y-81367416D01*
X140867416Y-81168825D01*
X141042523Y-80949248D01*
X141191945Y-80711445D01*
X141313801Y-80458408D01*
X141406560Y-80193318D01*
X141427372Y-80102135D01*
X182532000Y-80102135D01*
X182532000Y-81897870D01*
X182532001Y-81897876D01*
X182538408Y-81957483D01*
X182588702Y-82092328D01*
X182588706Y-82092335D01*
X182674952Y-82207544D01*
X182674955Y-82207547D01*
X182790164Y-82293793D01*
X182790171Y-82293797D01*
X182925017Y-82344091D01*
X182925016Y-82344091D01*
X182931944Y-82344835D01*
X182984627Y-82350500D01*
X184780372Y-82350499D01*
X184839983Y-82344091D01*
X184974831Y-82293796D01*
X185090046Y-82207546D01*
X185176296Y-82092331D01*
X185226591Y-81957483D01*
X185233000Y-81897873D01*
X185232999Y-81873979D01*
X185235830Y-81860963D01*
X185246440Y-81841525D01*
X185252679Y-81820275D01*
X185269303Y-81799643D01*
X185269308Y-81799636D01*
X185269311Y-81799634D01*
X185269318Y-81799626D01*
X185939537Y-81129408D01*
X185956575Y-81192993D01*
X186022401Y-81307007D01*
X186115493Y-81400099D01*
X186229507Y-81465925D01*
X186293090Y-81482962D01*
X185660782Y-82115269D01*
X185660782Y-82115270D01*
X185714949Y-82154624D01*
X185904282Y-82251095D01*
X186106370Y-82316757D01*
X186316254Y-82350000D01*
X186528746Y-82350000D01*
X186738627Y-82316757D01*
X186738630Y-82316757D01*
X186940717Y-82251095D01*
X187130054Y-82154622D01*
X187184216Y-82115270D01*
X187184217Y-82115270D01*
X186551908Y-81482962D01*
X186615493Y-81465925D01*
X186729507Y-81400099D01*
X186822599Y-81307007D01*
X186888425Y-81192993D01*
X186905462Y-81129408D01*
X187537770Y-81761717D01*
X187537770Y-81761716D01*
X187577122Y-81707555D01*
X187581732Y-81698507D01*
X187629705Y-81647709D01*
X187697525Y-81630912D01*
X187763661Y-81653447D01*
X187802704Y-81698504D01*
X187807449Y-81707817D01*
X187932390Y-81879786D01*
X188082713Y-82030109D01*
X188254679Y-82155048D01*
X188254681Y-82155049D01*
X188254684Y-82155051D01*
X188444088Y-82251557D01*
X188646257Y-82317246D01*
X188856213Y-82350500D01*
X188856214Y-82350500D01*
X189068786Y-82350500D01*
X189068787Y-82350500D01*
X189278743Y-82317246D01*
X189480912Y-82251557D01*
X189670316Y-82155051D01*
X189756638Y-82092335D01*
X189842286Y-82030109D01*
X189842288Y-82030106D01*
X189842292Y-82030104D01*
X189992604Y-81879792D01*
X189992606Y-81879788D01*
X189992609Y-81879786D01*
X190117548Y-81707820D01*
X190117550Y-81707817D01*
X190117551Y-81707816D01*
X190122014Y-81699054D01*
X190169988Y-81648259D01*
X190237808Y-81631463D01*
X190303944Y-81653999D01*
X190342986Y-81699056D01*
X190347451Y-81707820D01*
X190472390Y-81879786D01*
X190622713Y-82030109D01*
X190794679Y-82155048D01*
X190794681Y-82155049D01*
X190794684Y-82155051D01*
X190984088Y-82251557D01*
X191186257Y-82317246D01*
X191396213Y-82350500D01*
X191396214Y-82350500D01*
X191608786Y-82350500D01*
X191608787Y-82350500D01*
X191818743Y-82317246D01*
X192020912Y-82251557D01*
X192210316Y-82155051D01*
X192296638Y-82092335D01*
X192382286Y-82030109D01*
X192382288Y-82030106D01*
X192382292Y-82030104D01*
X192532604Y-81879792D01*
X192532606Y-81879788D01*
X192532609Y-81879786D01*
X192657548Y-81707820D01*
X192657550Y-81707817D01*
X192657551Y-81707816D01*
X192662014Y-81699054D01*
X192709988Y-81648259D01*
X192777808Y-81631463D01*
X192843944Y-81653999D01*
X192882986Y-81699056D01*
X192887451Y-81707820D01*
X193012390Y-81879786D01*
X193162713Y-82030109D01*
X193334679Y-82155048D01*
X193334681Y-82155049D01*
X193334684Y-82155051D01*
X193524088Y-82251557D01*
X193726257Y-82317246D01*
X193936213Y-82350500D01*
X193936214Y-82350500D01*
X194148786Y-82350500D01*
X194148787Y-82350500D01*
X194358743Y-82317246D01*
X194560912Y-82251557D01*
X194750316Y-82155051D01*
X194836638Y-82092335D01*
X194922286Y-82030109D01*
X194922288Y-82030106D01*
X194922292Y-82030104D01*
X195072604Y-81879792D01*
X195072606Y-81879788D01*
X195072609Y-81879786D01*
X195197548Y-81707820D01*
X195197550Y-81707817D01*
X195197551Y-81707816D01*
X195294057Y-81518412D01*
X195359746Y-81316243D01*
X195393000Y-81106287D01*
X195393000Y-80893713D01*
X195359746Y-80683757D01*
X195294057Y-80481588D01*
X195197551Y-80292184D01*
X195197549Y-80292181D01*
X195197548Y-80292179D01*
X195072609Y-80120213D01*
X194922286Y-79969890D01*
X194750320Y-79844951D01*
X194560914Y-79748444D01*
X194560913Y-79748443D01*
X194560912Y-79748443D01*
X194358743Y-79682754D01*
X194358741Y-79682753D01*
X194358740Y-79682753D01*
X194197457Y-79657208D01*
X194148787Y-79649500D01*
X193936213Y-79649500D01*
X193887542Y-79657208D01*
X193726260Y-79682753D01*
X193524085Y-79748444D01*
X193334679Y-79844951D01*
X193162713Y-79969890D01*
X193012390Y-80120213D01*
X192887449Y-80292182D01*
X192882984Y-80300946D01*
X192835009Y-80351742D01*
X192767188Y-80368536D01*
X192701053Y-80345998D01*
X192662016Y-80300946D01*
X192657550Y-80292182D01*
X192532609Y-80120213D01*
X192382286Y-79969890D01*
X192210320Y-79844951D01*
X192020914Y-79748444D01*
X192020913Y-79748443D01*
X192020912Y-79748443D01*
X191818743Y-79682754D01*
X191818741Y-79682753D01*
X191818740Y-79682753D01*
X191657457Y-79657208D01*
X191608787Y-79649500D01*
X191396213Y-79649500D01*
X191347542Y-79657208D01*
X191186260Y-79682753D01*
X190984085Y-79748444D01*
X190794679Y-79844951D01*
X190622713Y-79969890D01*
X190472390Y-80120213D01*
X190347449Y-80292182D01*
X190342984Y-80300946D01*
X190295009Y-80351742D01*
X190227188Y-80368536D01*
X190161053Y-80345998D01*
X190122016Y-80300946D01*
X190117550Y-80292182D01*
X189992609Y-80120213D01*
X189842286Y-79969890D01*
X189670320Y-79844951D01*
X189480914Y-79748444D01*
X189480913Y-79748443D01*
X189480912Y-79748443D01*
X189278743Y-79682754D01*
X189278741Y-79682753D01*
X189278740Y-79682753D01*
X189117457Y-79657208D01*
X189068787Y-79649500D01*
X188856213Y-79649500D01*
X188807542Y-79657208D01*
X188646260Y-79682753D01*
X188444085Y-79748444D01*
X188254679Y-79844951D01*
X188082713Y-79969890D01*
X187932390Y-80120213D01*
X187807449Y-80292182D01*
X187802702Y-80301499D01*
X187754727Y-80352293D01*
X187686905Y-80369087D01*
X187620771Y-80346548D01*
X187581734Y-80301495D01*
X187577126Y-80292452D01*
X187537770Y-80238282D01*
X187537769Y-80238282D01*
X186905462Y-80870590D01*
X186888425Y-80807007D01*
X186822599Y-80692993D01*
X186729507Y-80599901D01*
X186615493Y-80534075D01*
X186551909Y-80517037D01*
X187184216Y-79884728D01*
X187130050Y-79845375D01*
X186940717Y-79748904D01*
X186738629Y-79683242D01*
X186528746Y-79650000D01*
X186316254Y-79650000D01*
X186106372Y-79683242D01*
X186106369Y-79683242D01*
X185904282Y-79748904D01*
X185714939Y-79845380D01*
X185660782Y-79884727D01*
X185660782Y-79884728D01*
X186293091Y-80517037D01*
X186229507Y-80534075D01*
X186115493Y-80599901D01*
X186022401Y-80692993D01*
X185956575Y-80807007D01*
X185939537Y-80870590D01*
X185269318Y-80200371D01*
X185235833Y-80139048D01*
X185235830Y-80139035D01*
X185232999Y-80126014D01*
X185232999Y-80102128D01*
X185226591Y-80042517D01*
X185198426Y-79967002D01*
X185176298Y-79907673D01*
X185176293Y-79907664D01*
X185090047Y-79792455D01*
X185090044Y-79792452D01*
X184974835Y-79706206D01*
X184974828Y-79706202D01*
X184839982Y-79655908D01*
X184839983Y-79655908D01*
X184780383Y-79649501D01*
X184780381Y-79649500D01*
X184780373Y-79649500D01*
X184780364Y-79649500D01*
X182984629Y-79649500D01*
X182984623Y-79649501D01*
X182925016Y-79655908D01*
X182790171Y-79706202D01*
X182790164Y-79706206D01*
X182674955Y-79792452D01*
X182674952Y-79792455D01*
X182588706Y-79907664D01*
X182588702Y-79907671D01*
X182538408Y-80042517D01*
X182532001Y-80102116D01*
X182532000Y-80102135D01*
X141427372Y-80102135D01*
X141434430Y-80071213D01*
X141434430Y-80071212D01*
X141445827Y-80021275D01*
X141469055Y-79919509D01*
X141500500Y-79640425D01*
X141500500Y-79359575D01*
X141500499Y-79359568D01*
X202999500Y-79359568D01*
X202999500Y-79640431D01*
X203030942Y-79919494D01*
X203030945Y-79919512D01*
X203093439Y-80193317D01*
X203093443Y-80193329D01*
X203186200Y-80458411D01*
X203308053Y-80711442D01*
X203308055Y-80711445D01*
X203457477Y-80949248D01*
X203632584Y-81168825D01*
X203831175Y-81367416D01*
X204050752Y-81542523D01*
X204288555Y-81691945D01*
X204288557Y-81691946D01*
X204321514Y-81707817D01*
X204541592Y-81813801D01*
X204740680Y-81883465D01*
X204806670Y-81906556D01*
X204806682Y-81906560D01*
X205080491Y-81969055D01*
X205080497Y-81969055D01*
X205080505Y-81969057D01*
X205266547Y-81990018D01*
X205359569Y-82000499D01*
X205359572Y-82000500D01*
X205359575Y-82000500D01*
X205640428Y-82000500D01*
X205640429Y-82000499D01*
X205783055Y-81984429D01*
X205919494Y-81969057D01*
X205919499Y-81969056D01*
X205919509Y-81969055D01*
X206193318Y-81906560D01*
X206458408Y-81813801D01*
X206711445Y-81691945D01*
X206949248Y-81542523D01*
X207168825Y-81367416D01*
X207367416Y-81168825D01*
X207542523Y-80949248D01*
X207691945Y-80711445D01*
X207813801Y-80458408D01*
X207906560Y-80193318D01*
X207969055Y-79919509D01*
X208000500Y-79640425D01*
X208000500Y-79359575D01*
X207969055Y-79080491D01*
X207906560Y-78806682D01*
X207813801Y-78541592D01*
X207691945Y-78288555D01*
X207542523Y-78050752D01*
X207367416Y-77831175D01*
X207168825Y-77632584D01*
X206949248Y-77457477D01*
X206711445Y-77308055D01*
X206711442Y-77308053D01*
X206458411Y-77186200D01*
X206193329Y-77093443D01*
X206193317Y-77093439D01*
X205919512Y-77030945D01*
X205919494Y-77030942D01*
X205640431Y-76999500D01*
X205640425Y-76999500D01*
X205359575Y-76999500D01*
X205359568Y-76999500D01*
X205080505Y-77030942D01*
X205080487Y-77030945D01*
X204806682Y-77093439D01*
X204806670Y-77093443D01*
X204541588Y-77186200D01*
X204288557Y-77308053D01*
X204050753Y-77457476D01*
X203831175Y-77632583D01*
X203632583Y-77831175D01*
X203457476Y-78050753D01*
X203308053Y-78288557D01*
X203186200Y-78541588D01*
X203093443Y-78806670D01*
X203093439Y-78806682D01*
X203030945Y-79080487D01*
X203030942Y-79080505D01*
X202999500Y-79359568D01*
X141500499Y-79359568D01*
X141469055Y-79080491D01*
X141406560Y-78806682D01*
X141313801Y-78541592D01*
X141191945Y-78288555D01*
X141042523Y-78050752D01*
X140867416Y-77831175D01*
X140668825Y-77632584D01*
X140449248Y-77457477D01*
X140211445Y-77308055D01*
X140211442Y-77308053D01*
X139958411Y-77186200D01*
X139693329Y-77093443D01*
X139693317Y-77093439D01*
X139419512Y-77030945D01*
X139419494Y-77030942D01*
X139140431Y-76999500D01*
X139140425Y-76999500D01*
X138859575Y-76999500D01*
X138859568Y-76999500D01*
X138580505Y-77030942D01*
X138580487Y-77030945D01*
X138306682Y-77093439D01*
X138306670Y-77093443D01*
X138041588Y-77186200D01*
X137788557Y-77308053D01*
X137550753Y-77457476D01*
X137331175Y-77632583D01*
X137132583Y-77831175D01*
X136957476Y-78050753D01*
X136808053Y-78288557D01*
X136686200Y-78541588D01*
X136593443Y-78806670D01*
X136593439Y-78806682D01*
X136530945Y-79080487D01*
X136530942Y-79080505D01*
X136499500Y-79359568D01*
X136000500Y-79359568D01*
X136000500Y-76624500D01*
X136020185Y-76557461D01*
X136072989Y-76511706D01*
X136124500Y-76500500D01*
X208375500Y-76500500D01*
X208442539Y-76520185D01*
G37*
%TD.AperFunction*%
%TD*%
M02*
