%TF.GenerationSoftware,KiCad,Pcbnew,9.0.6-9.0.6~ubuntu24.04.1*%
%TF.CreationDate,2025-11-09T14:17:22-06:00*%
%TF.ProjectId,FlockOff,466c6f63-6b4f-4666-962e-6b696361645f,rev?*%
%TF.SameCoordinates,Original*%
%TF.FileFunction,Copper,L1,Top*%
%TF.FilePolarity,Positive*%
%FSLAX46Y46*%
G04 Gerber Fmt 4.6, Leading zero omitted, Abs format (unit mm)*
G04 Created by KiCad (PCBNEW 9.0.6-9.0.6~ubuntu24.04.1) date 2025-11-09 14:17:22*
%MOMM*%
%LPD*%
G01*
G04 APERTURE LIST*
G04 Aperture macros list*
%AMRoundRect*
0 Rectangle with rounded corners*
0 $1 Rounding radius*
0 $2 $3 $4 $5 $6 $7 $8 $9 X,Y pos of 4 corners*
0 Add a 4 corners polygon primitive as box body*
4,1,4,$2,$3,$4,$5,$6,$7,$8,$9,$2,$3,0*
0 Add four circle primitives for the rounded corners*
1,1,$1+$1,$2,$3*
1,1,$1+$1,$4,$5*
1,1,$1+$1,$6,$7*
1,1,$1+$1,$8,$9*
0 Add four rect primitives between the rounded corners*
20,1,$1+$1,$2,$3,$4,$5,0*
20,1,$1+$1,$4,$5,$6,$7,0*
20,1,$1+$1,$6,$7,$8,$9,0*
20,1,$1+$1,$8,$9,$2,$3,0*%
G04 Aperture macros list end*
%TA.AperFunction,ComponentPad*%
%ADD10C,1.100000*%
%TD*%
%TA.AperFunction,ComponentPad*%
%ADD11RoundRect,0.250000X0.550000X-0.950000X0.550000X0.950000X-0.550000X0.950000X-0.550000X-0.950000X0*%
%TD*%
%TA.AperFunction,ComponentPad*%
%ADD12O,1.600000X2.400000*%
%TD*%
%TA.AperFunction,ComponentPad*%
%ADD13R,1.700000X1.700000*%
%TD*%
%TA.AperFunction,ComponentPad*%
%ADD14C,1.700000*%
%TD*%
%TA.AperFunction,ComponentPad*%
%ADD15RoundRect,0.250000X-0.550000X0.550000X-0.550000X-0.550000X0.550000X-0.550000X0.550000X0.550000X0*%
%TD*%
%TA.AperFunction,ComponentPad*%
%ADD16C,1.600000*%
%TD*%
%TA.AperFunction,Conductor*%
%ADD17C,0.200000*%
%TD*%
G04 APERTURE END LIST*
D10*
%TO.P,D2,1,Din*%
%TO.N,Net-(D1-Dout)*%
X172100000Y-99500000D03*
%TO.P,D2,2,Vcc*%
%TO.N,Net-(D1-Vcc)*%
X170800000Y-99500000D03*
%TO.P,D2,3,Gnd*%
%TO.N,GND*%
X169500000Y-99500000D03*
%TO.P,D2,4,Dout*%
%TO.N,unconnected-(D2-Dout-Pad4)*%
X168200000Y-99500000D03*
%TD*%
D11*
%TO.P,U1,1,GPIO1/D0/A0*%
%TO.N,unconnected-(U1-GPIO1{slash}D0{slash}A0-Pad1)*%
X138380000Y-101075000D03*
D12*
%TO.P,U1,2,GPIO2/DA/A1*%
%TO.N,unconnected-(U1-GPIO2{slash}DA{slash}A1-Pad2)*%
X140920000Y-101075000D03*
%TO.P,U1,3,GPIO3/D2/A2*%
%TO.N,unconnected-(U1-GPIO3{slash}D2{slash}A2-Pad3)*%
X143460000Y-101075000D03*
%TO.P,U1,4,GPIO4/D3/A3*%
%TO.N,unconnected-(U1-GPIO4{slash}D3{slash}A3-Pad4)*%
X146000000Y-101075000D03*
%TO.P,U1,5,GPIO5/D4/I2C_SDA*%
%TO.N,Net-(U1-GPIO5{slash}D4{slash}I2C_SDA)*%
X148540000Y-101075000D03*
%TO.P,U1,6,GPIO9/D5/I2C_SCL*%
%TO.N,Net-(U1-GPIO9{slash}D5{slash}I2C_SCL)*%
X151080000Y-101075000D03*
%TO.P,U1,7,U0TXD/D6/TX*%
%TO.N,unconnected-(U1-U0TXD{slash}D6{slash}TX-Pad7)*%
X153620000Y-101075000D03*
%TO.P,U1,8,U0RXD/D7/RX*%
%TO.N,unconnected-(U1-U0RXD{slash}D7{slash}RX-Pad8)*%
X153620000Y-85835000D03*
%TO.P,U1,9,GPIO7/D8/A8/SCK*%
%TO.N,unconnected-(U1-GPIO7{slash}D8{slash}A8{slash}SCK-Pad9)*%
X151080000Y-85835000D03*
%TO.P,U1,10,GPIO8/D9/A9/MISO*%
%TO.N,unconnected-(U1-GPIO8{slash}D9{slash}A9{slash}MISO-Pad10)*%
X148540000Y-85835000D03*
%TO.P,U1,11,GPIO9/D10/A10/MOSI*%
%TO.N,Net-(D1-Din)*%
X146000000Y-85835000D03*
%TO.P,U1,12,VCC_3V3*%
%TO.N,+3.3V*%
X143460000Y-85835000D03*
%TO.P,U1,13,GND*%
%TO.N,GND*%
X140920000Y-85835000D03*
%TO.P,U1,14,VBUS*%
%TO.N,+5V*%
X138380000Y-85835000D03*
%TD*%
D10*
%TO.P,D1,1,Din*%
%TO.N,Net-(D1-Din)*%
X168700000Y-86000000D03*
%TO.P,D1,2,Vcc*%
%TO.N,Net-(D1-Vcc)*%
X170000000Y-86000000D03*
%TO.P,D1,3,Gnd*%
%TO.N,GND*%
X171300000Y-86000000D03*
%TO.P,D1,4,Dout*%
%TO.N,Net-(D1-Dout)*%
X172600000Y-86000000D03*
%TD*%
D13*
%TO.P,U2,1,Vcc*%
%TO.N,+3.3V*%
X183882500Y-81000000D03*
D14*
%TO.P,U2,2,GND*%
%TO.N,GND*%
X186422500Y-81000000D03*
%TO.P,U2,3,RXD*%
%TO.N,Net-(U1-GPIO9{slash}D5{slash}I2C_SCL)*%
X188962500Y-81000000D03*
%TO.P,U2,4,TXD*%
%TO.N,Net-(U1-GPIO5{slash}D4{slash}I2C_SDA)*%
X191502500Y-81000000D03*
%TO.P,U2,5,PPS*%
%TO.N,unconnected-(U2-PPS-Pad5)*%
X194042500Y-81000000D03*
%TD*%
D15*
%TO.P,D3,1,K*%
%TO.N,Net-(D1-Vcc)*%
X163100000Y-89190000D03*
D16*
%TO.P,D3,2,A*%
%TO.N,+5V*%
X163100000Y-96810000D03*
%TD*%
D17*
%TO.N,Net-(D1-Din)*%
X146000000Y-85835000D02*
X146000000Y-85500000D01*
X149835000Y-82000000D02*
X164700000Y-82000000D01*
X146000000Y-85835000D02*
X149835000Y-82000000D01*
X164700000Y-82000000D02*
X168700000Y-86000000D01*
%TO.N,Net-(D1-Vcc)*%
X170800000Y-93180000D02*
X166810000Y-89190000D01*
X166810000Y-89190000D02*
X170000000Y-86000000D01*
X163100000Y-89190000D02*
X166810000Y-89190000D01*
X170800000Y-99500000D02*
X170800000Y-93180000D01*
%TO.N,Net-(D1-Dout)*%
X172100000Y-86500000D02*
X172600000Y-86000000D01*
X172100000Y-99500000D02*
X172100000Y-86500000D01*
%TO.N,+5V*%
X138380000Y-85835000D02*
X149355000Y-96810000D01*
X149355000Y-96810000D02*
X163100000Y-96810000D01*
%TO.N,+3.3V*%
X143280000Y-85000000D02*
X143280000Y-85280000D01*
X148295000Y-81000000D02*
X183882500Y-81000000D01*
X143460000Y-85835000D02*
X148295000Y-81000000D01*
%TO.N,Net-(U1-GPIO9{slash}D5{slash}I2C_SCL)*%
X174500000Y-104000000D02*
X154005000Y-104000000D01*
X188962500Y-81000000D02*
X188962500Y-89537500D01*
X154005000Y-104000000D02*
X151080000Y-101075000D01*
X188962500Y-89537500D02*
X174500000Y-104000000D01*
%TO.N,Net-(U1-GPIO5{slash}D4{slash}I2C_SDA)*%
X191502500Y-81000000D02*
X191502500Y-88497500D01*
X152965000Y-105500000D02*
X148540000Y-101075000D01*
X191502500Y-88497500D02*
X174500000Y-105500000D01*
X174500000Y-105500000D02*
X152965000Y-105500000D01*
%TD*%
M02*
