M48
; DRILL file {KiCad 9.0.6-9.0.6~ubuntu24.04.1} date 2025-11-09T14:11:54-0600
; FORMAT={-:-/ absolute / metric / decimal}
; #@! TF.CreationDate,2025-11-09T14:11:54-06:00
; #@! TF.GenerationSoftware,Kicad,Pcbnew,9.0.6-9.0.6~ubuntu24.04.1
; #@! TF.FileFunction,Plated,1,2,PTH
FMAT,2
METRIC
; #@! TA.AperFunction,Plated,PTH,ComponentDrill
T1C0.800
; #@! TA.AperFunction,Plated,PTH,ComponentDrill
T2C1.000
%
G90
G05
T1
X138.38Y-85.835
X138.38Y-101.075
X140.92Y-85.835
X140.92Y-101.075
X143.46Y-85.835
X143.46Y-101.075
X146.0Y-85.835
X146.0Y-101.075
X148.54Y-85.835
X148.54Y-101.075
X151.08Y-85.835
X151.08Y-101.075
X153.62Y-85.835
X153.62Y-101.075
X163.1Y-89.19
X163.1Y-96.81
X168.2Y-99.5
X168.7Y-86.0
X169.5Y-99.5
X170.0Y-86.0
X170.8Y-99.5
X171.3Y-86.0
X172.1Y-99.5
X172.6Y-86.0
T2
X183.882Y-81.0
X186.422Y-81.0
X188.962Y-81.0
X191.502Y-81.0
X194.042Y-81.0
M30
